<?xml version="1.0" encoding="UTF-8"?>
<svg version="1.1" xmlns="http://www.w3.org/2000/svg" width="534" height="534">
<path d="M0 0 C11.3789892 0.36706417 20.53798438 11.85150114 28 19.375 C28.95831708 20.4279889 29.90834064 21.48862018 30.84765625 22.55859375 C37.19079169 29.60971112 42.376452 31.93204803 51.2578125 34.28515625 C61.22591781 37.18818483 67.78523437 44.44860419 73.6640625 52.71484375 C75 55.375 75 55.375 75.23046875 58.9375 C75.65690686 62.66915012 75.65690686 62.66915012 79.17578125 64.5625 C80.54358119 65.1914063 81.92353152 65.79433972 83.3125 66.375 C84.78128062 67.05049512 86.24872056 67.72891257 87.71484375 68.41015625 C88.44300293 68.74031738 89.17116211 69.07047852 89.92138672 69.41064453 C100.81569399 74.46496844 111.0143286 81.4424822 118 91.375 C119.01171875 94.2421875 119.01171875 94.2421875 119.6875 97.25 C119.91824219 98.23742187 120.14898438 99.22484375 120.38671875 100.2421875 C124.55280267 121.52371175 122.82368198 146.72763603 113 166.375 C112.75376368 168.54383765 112.55817736 170.71850482 112.38671875 172.89453125 C112.27209301 174.24158839 112.15683643 175.58859196 112.04101562 176.93554688 C111.86366605 179.04311978 111.6903234 181.15069168 111.52856445 183.25952148 C110.67103185 194.29188192 108.96145783 204.77219157 103.875 214.75 C101.97867901 218.717687 101.56482975 222.38688889 101.125 226.75 C99.54430913 239.96194116 92.14831608 249.18752488 82 257.375 C80.86423502 258.10962245 79.71160007 258.81887367 78.54296875 259.5 C69.09063889 265.0309633 67.09510321 269.98424283 64.3046875 280.0546875 C60.91432996 292.09486993 50.68268659 300.68488116 40.375 307.0625 C31.92378744 311.74084981 22.85576935 314.83489261 13.6796875 317.765625 C-8.50203899 324.8600358 -28.80690656 335.62582725 -49.13452148 346.86376953 C-76.09993488 361.73378369 -104.74846892 377.38168695 -136.5625 370 C-144.18881645 367.66356648 -150.9897015 363.93552521 -157.94921875 360.08984375 C-163.16168427 357.23020592 -168.53250477 354.78189027 -173.9375 352.3125 C-182.17438303 348.50196531 -189.02907035 344.17161534 -196 338.375 C-199.28393945 336.18570704 -200.84014742 335.99161578 -204.69921875 335.62890625 C-206.39014648 335.45584961 -206.39014648 335.45584961 -208.11523438 335.27929688 C-210.47702123 335.05331946 -212.83899892 334.82932695 -215.20117188 334.60742188 C-221.60191468 333.94878944 -227.17521573 333.18720308 -233 330.375 C-235 327.375 -235 327.375 -234.6875 324.3125 C-234 321.375 -234 321.375 -233 319.375 C-235.31 318.715 -237.62 318.055 -240 317.375 C-240.061875 318.48875 -240.12375 319.6025 -240.1875 320.75 C-241.54188384 331.00720029 -247.92976813 338.28199766 -255 345.375 C-255.72832031 346.12652344 -256.45664062 346.87804687 -257.20703125 347.65234375 C-274.17592366 364.10089534 -302.4022603 376.57005184 -325.9609375 378.52734375 C-328 378.375 -328 378.375 -330 376.375 C-335.54888372 357.30853489 -323.16957704 330.57230868 -314.49755859 314.16601562 C-311.17739197 308.22217675 -307.0620449 302.82574092 -303 297.375 C-322.21115732 298.03293745 -341.14230205 298.7272665 -360.00292969 302.69799805 C-366.78116414 304.11162641 -373.07523822 304.66799376 -380 304.375 C-381.35508915 299.67768553 -380.10300947 297.48360004 -377.84765625 293.23046875 C-374.24658319 287.66517401 -369.66371779 283.04534239 -365 278.375 C-364.34 277.70339844 -363.68 277.03179687 -363 276.33984375 C-351.28178138 265.25299466 -334.75012243 258.13333197 -318.625 258.3125 C-317.56539063 258.32152344 -316.50578125 258.33054687 -315.4140625 258.33984375 C-314.61742187 258.35144531 -313.82078125 258.36304688 -313 258.375 C-313.556875 257.74335938 -314.11375 257.11171875 -314.6875 256.4609375 C-322.87283459 246.86529188 -328.95572048 236.68042152 -333.5 224.9375 C-333.75547607 224.2875708 -334.01095215 223.6376416 -334.27416992 222.96801758 C-335.85252109 218.6468305 -336.23632333 214.95376447 -336 210.375 C-336.55848633 210.14031006 -337.11697266 209.90562012 -337.69238281 209.66381836 C-342.20644233 207.14268842 -345.63432485 203.07249997 -349.26171875 199.42895508 C-350.72280145 197.96475655 -352.19655028 196.51428146 -353.671875 195.06445312 C-361.60550752 187.18821416 -369.63340482 179.09175426 -372.4375 168 C-374.01431517 162.42896761 -376.18228298 158.15127921 -379.625 153.5 C-384.39411554 146.99810581 -387.46197361 141.76679021 -386.875 133.5625 C-386.30210633 130.14900854 -385.85685371 127.56525451 -383 125.375 C-377.03610985 124.70415451 -373.4935636 126.36577166 -368.6875 129.625 C-367.67393433 130.28423462 -367.67393433 130.28423462 -366.63989258 130.95678711 C-364.41414377 132.4115863 -362.20613422 133.89064311 -360 135.375 C-357.53343006 137.02446939 -355.06636792 138.67319778 -352.59887695 140.32128906 C-351.0130184 141.38420124 -349.43070314 142.45242253 -347.85229492 143.52636719 C-347.13146729 144.01395508 -346.41063965 144.50154297 -345.66796875 145.00390625 C-345.03141357 145.43775635 -344.3948584 145.87160645 -343.73901367 146.31860352 C-341.87127224 147.54139286 -341.87127224 147.54139286 -339 148.375 C-339.39832031 147.61058594 -339.79664063 146.84617188 -340.20703125 146.05859375 C-347.99489861 130.31232179 -350.39245449 114.29059111 -345.0703125 97.4296875 C-341.72993476 88.42218614 -336.44587521 80.39879335 -327.75 75.8125 C-320.88987877 72.94739055 -313.02938095 72.0855981 -305.875 74.375 C-305.25625 74.705 -304.6375 75.035 -304 75.375 C-303.896875 74.49585938 -303.79375 73.61671875 -303.6875 72.7109375 C-301.74963267 63.30787672 -294.46591362 55.95147326 -287 50.375 C-284.70564488 48.88893145 -282.43865187 47.62026904 -280 46.375 C-287.0697627 45.17857862 -294.12999697 45.05009529 -301.28710938 44.85742188 C-317.10881287 44.30245809 -317.10881287 44.30245809 -323 40.375 C-322.92478893 37.21613505 -322.62522327 35.07415712 -320.48046875 32.67578125 C-315.54189194 28.38181868 -312.23569579 27.24862238 -305.62109375 27.2421875 C-304.31962402 27.24025391 -303.0181543 27.23832031 -301.67724609 27.23632812 C-300.26399605 27.24044539 -298.85074725 27.24501287 -297.4375 27.25 C-296.36813202 27.25132935 -296.36813202 27.25132935 -295.27716064 27.25268555 C-284.39393184 27.26852323 -273.53788856 27.5364601 -262.66430664 28.0168457 C-255.10095337 28.35060265 -247.57175354 28.49890142 -240 28.375 C-240.94875 27.6325 -241.8975 26.89 -242.875 26.125 C-247.37819247 22.30637836 -247.37819247 22.30637836 -248 19.375 C-246.8125 16.3125 -246.8125 16.3125 -245 13.375 C-244.4121875 12.4159375 -244.4121875 12.4159375 -243.8125 11.4375 C-240.71401533 9.62114692 -237.35605894 10.62698252 -234 11.375 C-231.0613673 12.46881499 -228.29347195 13.83036672 -225.5 15.25 C-212.71634443 21.60689976 -206.19898929 22.5085996 -192.1875 18.9375 C-185.3010297 17.21663745 -178.63617108 15.99675636 -171.5625 15.4375 C-164.28189237 14.83237513 -158.92855255 12.9594179 -152.28515625 9.83984375 C-142.59356203 5.51838378 -132.84359662 4.92160876 -122.37988281 5.29248047 C-119.73011579 5.38435791 -117.08034082 5.44302871 -114.4296875 5.50390625 C-89.26103215 6.19978488 -69.36712309 12.94025438 -46.625 23.4375 C-45.51431152 23.94853271 -44.40362305 24.45956543 -43.25927734 24.98608398 C-38.6007401 27.15034389 -33.99031875 29.32843494 -29.5078125 31.83984375 C-22.99374893 35.4858879 -22.99374893 35.4858879 -15.69140625 36.0078125 C-12.28195912 35.03565532 -12.28195912 35.03565532 -8.91796875 33.7109375 C-4.12760293 31.91693596 0.82854932 31.31790298 5.875 30.625 C7.22404419 30.43478271 7.22404419 30.43478271 8.6003418 30.24072266 C10.73246266 29.9441409 12.86608401 29.65837717 15 29.375 C13.69675781 28.1065625 13.69675781 28.1065625 12.3671875 26.8125 C-3.70196258 11.05733679 -3.70196258 11.05733679 -4.4375 4.4375 C-3.87272727 0.48409091 -3.87272727 0.48409091 0 0 Z " fill="#B7885A" transform="translate(395,101.625)"/>
<path d="M0 0 C5.84716577 5.84716577 5.32770554 19.86625459 5.375 27.8125 C5.23878924 43.3809409 3.04375928 59.91248143 -4 74 C-4.24623632 76.16883765 -4.44182264 78.34350482 -4.61328125 80.51953125 C-4.72790699 81.86658839 -4.84316357 83.21359196 -4.95898438 84.56054688 C-5.13633395 86.66811978 -5.3096766 88.77569168 -5.47143555 90.88452148 C-6.32896815 101.91688192 -8.03854217 112.39719157 -13.125 122.375 C-15.02132099 126.342687 -15.43517025 130.01188889 -15.875 134.375 C-17.45569087 147.58694116 -24.85168392 156.81252488 -35 165 C-36.13576498 165.73462245 -37.28839993 166.44387367 -38.45703125 167.125 C-47.90936111 172.6559633 -49.90489679 177.60924283 -52.6953125 187.6796875 C-56.08567004 199.71986993 -66.31731341 208.30988116 -76.625 214.6875 C-85.07621256 219.36584981 -94.14423065 222.45989261 -103.3203125 225.390625 C-125.50203899 232.4850358 -145.80690656 243.25082725 -166.13452148 254.48876953 C-193.09993488 269.35878369 -221.74846892 285.00668695 -253.5625 277.625 C-261.18881645 275.28856648 -267.9897015 271.56052521 -274.94921875 267.71484375 C-280.16168427 264.85520592 -285.53250477 262.40689027 -290.9375 259.9375 C-299.17438303 256.12696531 -306.02907035 251.79661534 -313 246 C-316.28393945 243.81070704 -317.84014742 243.61661578 -321.69921875 243.25390625 C-322.82650391 243.13853516 -323.95378906 243.02316406 -325.11523438 242.90429688 C-327.47702123 242.67831946 -329.83899892 242.45432695 -332.20117188 242.23242188 C-338.60191468 241.57378944 -344.17521573 240.81220308 -350 238 C-352 235 -352 235 -352.0625 232.3125 C-350.58510018 227.7064888 -348.01979806 223.78293712 -344 221 C-338.84400742 221.07282475 -334.8614497 223.42619291 -330.4375 225.8125 C-323.47060175 229.42084411 -316.63372893 232.08462801 -309 234 C-307.82308594 234.29777344 -306.64617187 234.59554687 -305.43359375 234.90234375 C-294.14214023 237.87610719 -294.14214023 237.87610719 -283 236 C-283.24800503 234.03750324 -283.24800503 234.03750324 -284 232 C-286.59815791 230.76248877 -289.04021407 229.7981451 -291.75 228.875 C-331.56267041 214.31351177 -331.56267041 214.31351177 -342 200 C-342.70566319 194.97214976 -342.01587406 192.05983047 -339 188 C-336.56807462 185.56807462 -335.7513183 185.59209419 -332.3828125 185.4296875 C-324.11572726 185.5885146 -317.13700763 189.55892472 -309.875 193.125 C-307.08622614 194.4726477 -304.29170659 195.80763527 -301.4921875 197.1328125 C-300.8016478 197.45981644 -300.11110809 197.78682037 -299.39964294 198.12373352 C-294.30320543 200.49416012 -289.13643614 202.54670886 -283.83984375 204.42578125 C-283.14724457 204.67268707 -282.45464539 204.9195929 -281.74105835 205.17398071 C-276.41016523 207.00492648 -270.68007906 208.73649338 -265 208 C-262.68805027 206.84693297 -262.68805027 206.84693297 -261 205 C-260.30826546 200.89130142 -260.30826546 200.89130142 -261 197 C-264.60928553 193.47907739 -268.86520306 191.44343665 -273.375 189.3125 C-279.09592313 186.52768043 -284.66278382 183.57731242 -290.125 180.3125 C-290.72747559 179.95647705 -291.32995117 179.6004541 -291.95068359 179.23364258 C-303.63747421 172.14731963 -303.63747421 172.14731963 -305 167 C-304.80743088 161.70434916 -303.69046589 158.80229819 -300 155 C-296.7453676 153.3726838 -293.521351 153.50245889 -290 154 C-286.79686781 155.2344439 -283.90192709 156.90408478 -280.9375 158.625 C-258.61952228 170.94726439 -235.1029237 178.20276864 -209.5625 178.3125 C-208.47275879 178.31805908 -207.38301758 178.32361816 -206.26025391 178.3293457 C-191.23310419 178.19494909 -176.11752008 174.73591184 -165 164 C-164.34 163.01 -163.68 162.02 -163 161 C-159.98828125 160.59375 -159.98828125 160.59375 -156.3125 160.5 C-149.77592493 160.15843716 -145.06340194 159.76694369 -140.0625 155.25 C-138.58124839 152.11323189 -138.80280209 149.41809717 -139 146 C-135.57167166 143.90125431 -133.02500719 143.80920887 -129.046875 143.9453125 C-127.29358887 143.98688477 -127.29358887 143.98688477 -125.50488281 144.02929688 C-124.26577148 144.06087891 -123.02666016 144.09246094 -121.75 144.125 C-103.66732486 144.31810256 -84.29595155 141.4114751 -70.625 128.25 C-67.45323471 124.75596979 -65.71385846 121.59213081 -65.8125 116.8125 C-65.56172744 113.21443275 -65.56172744 113.21443275 -67 112 C-68.68183948 111.76712992 -70.3712416 111.58735834 -72.0625 111.4375 C-72.98160156 111.35371094 -73.90070313 111.26992188 -74.84765625 111.18359375 C-75.55792969 111.12300781 -76.26820313 111.06242187 -77 111 C-77.65951979 104.84448193 -76.86055924 101.90675091 -73.04638672 97.07861328 C-69.09723009 93.06726521 -64.21604406 90.48771906 -59.375 87.6875 C-42.8032485 77.70893111 -30.21606969 66.29432272 -21.3125 48.8125 C-20.8170166 47.85359863 -20.3215332 46.89469727 -19.81103516 45.90673828 C-12.29757314 31.03219335 -6.1716895 15.46705372 0 0 Z " fill="#A2764A" transform="translate(512,194)"/>
<path d="M0 0 C0 0.33 0 0.66 0 1 C-0.87140625 0.99097656 -1.7428125 0.98195313 -2.640625 0.97265625 C-11.163338 1.1848017 -16.14849954 2.8730196 -23.2578125 7.46484375 C-27.32192418 9.74005157 -30.49441207 9.92881921 -35 9 C-37.36734477 8.30806672 -39.66983459 7.52990408 -41.98046875 6.66796875 C-44.38671815 5.87209129 -46.4827374 5.75639394 -49 6 C-49 7.65 -49 9.3 -49 11 C-48.05125 11.2475 -47.1025 11.495 -46.125 11.75 C-29.34064411 16.61848457 -29.34064411 16.61848457 -24.85546875 23.84375 C-23.85170984 26.37377246 -23.7669769 28.28516802 -23.8125 31 C-23.82216797 32.2684375 -23.82216797 32.2684375 -23.83203125 33.5625 C-23.98845924 35.83252477 -24.36910186 37.81961604 -25 40 C-20.82553809 38.95579181 -20.82553809 38.95579181 -17.625 36.3125 C-16 35 -16 35 -14.1484375 34.99609375 C-10.93140459 35.37628855 -8.08168586 35.97277138 -5 37 C-2.60745424 37.22560676 -0.21071877 37.40848595 2.1875 37.5625 C3.45980469 37.64628906 4.73210937 37.73007813 6.04296875 37.81640625 C7.01878906 37.87699219 7.99460937 37.93757813 9 38 C8.65555119 35.52733235 8.65555119 35.52733235 8 33 C4.61120001 31.3056 0.77182352 31.20484545 -2.95703125 30.6953125 C-8.96543627 29.32240352 -12.63116549 26.10137797 -16 21 C-16.68834424 17.97365895 -16.45660227 16.19621587 -16 13 C-14.20636089 10.1899654 -12.98119065 8.49059532 -10 7 C-8.64583603 6.90498982 -7.28717881 6.86927183 -5.9296875 6.8671875 C-4.70765625 6.86525391 -4.70765625 6.86525391 -3.4609375 6.86328125 C-2.18089844 6.86908203 -2.18089844 6.86908203 -0.875 6.875 C-0.04484375 6.87113281 0.7853125 6.86726562 1.640625 6.86328125 C12.97631686 6.88104879 22.1065185 8.49060337 31 16 C39 25.50993377 39 25.50993377 39 28 C38.16855469 28.04898438 37.33710938 28.09796875 36.48046875 28.1484375 C35.39378906 28.22320312 34.30710937 28.29796875 33.1875 28.375 C32.10855469 28.44460937 31.02960938 28.51421875 29.91796875 28.5859375 C26.81373814 28.81195733 26.81373814 28.81195733 24 31 C24.33 32.32 24.66 33.64 25 35 C26.18335938 34.95359375 27.36671875 34.9071875 28.5859375 34.859375 C39.04641808 34.57052762 47.75746485 34.66208369 56.3125 41.4375 C57.199375 42.283125 58.08625 43.12875 59 44 C59.845625 44.70125 60.69125 45.4025 61.5625 46.125 C70.21195971 56.32692684 72.00905716 69.13452116 71 82 C68.72556491 91.87311596 62.19171151 100.208063 54 106 C48.46506811 109.13298031 43.25006056 109.80612171 37 109 C35.65730068 108.35240387 34.32285146 107.68723084 33 107 C29.83304044 106.83275263 29.83304044 106.83275263 27 107 C27 108.98 27 110.96 27 113 C34.16722796 115.15850237 40.50609852 115.08565468 47.9296875 114.65820312 C50.37525653 114.58616597 52.5908123 114.56917855 55 115 C57.484375 117.34375 57.484375 117.34375 59 120 C61.43064146 123.26617447 63.16537613 125.49354062 67 127 C65.13270609 132.60188173 59.99791546 136.13180314 55 139 C52.35619305 138.9046049 50.8130183 138.1546526 48.44921875 136.99609375 C42.36644692 134.52223918 34.54096637 135.14313543 28.4375 137.375 C26.5591084 138.26296694 24.6887153 139.17395321 22.875 140.1875 C20.05662052 141.40879777 18.0432178 141.36518614 15 141 C10.68537221 138.71578529 7.83039763 136.57599407 6 132 C5.64219292 128.30266017 5.56928587 124.6723822 6.5 121.05859375 C7.84345466 115.52733903 7.59153727 109.71545808 5.75 104.375 C4.22358699 101.86648709 4.22358699 101.86648709 1.8125 101.125 C1.214375 101.08375 0.61625 101.0425 0 101 C-0.97186056 104.77945772 -0.79071237 107.22215201 0 111 C0.71110777 119.53329326 -1.87028057 125.64742727 -7.1875 132.3125 C-12.00422305 137.4578694 -17.51813384 140.08964237 -24.5625 140.5625 C-30.72417176 140.2608797 -34.95663296 136.98660684 -39.25 132.8125 C-41.35877136 129.42340318 -42.71156798 125.95200066 -44.0703125 122.20703125 C-44.90076481 119.84780163 -44.90076481 119.84780163 -47 118 C-49.58354218 117.83312552 -49.58354218 117.83312552 -52 118 C-53.0537292 121.50555932 -53.0537292 121.50555932 -52.046875 124.875 C-49.88037054 129.27268069 -50.30618327 134.54529399 -51.6171875 139.18359375 C-54.56306071 145.87046524 -60.09950714 150.9724886 -66.75 153.9375 C-76.37462565 156.94519552 -86.00671297 155.0506954 -95 151 C-98.85476498 148.82245577 -102.55403637 146.5604954 -105.578125 143.296875 C-106.04734375 142.86890625 -106.5165625 142.4409375 -107 142 C-109.65466049 142.23043864 -109.65466049 142.23043864 -112 143 C-111.61912809 146.33262917 -111.10840904 147.86859511 -108.9375 150.5 C-106.69328891 153.39575624 -106.81741254 154.4660491 -107 158 C-111.30499734 158.04967599 -115.60983993 158.08584945 -119.91503906 158.10986328 C-121.37763376 158.11988105 -122.84020863 158.13349912 -124.30273438 158.15087891 C-126.41281039 158.17531439 -128.52262012 158.18652537 -130.6328125 158.1953125 C-132.53377686 158.21102295 -132.53377686 158.21102295 -134.47314453 158.22705078 C-137.98987733 158.00065167 -140.72916487 157.27223601 -144 156 C-142.6650473 141.72981601 -137.72389018 130.71566119 -127 121 C-122.30560144 117.46776249 -117.55958591 116.21281509 -111.69921875 116.5 C-101.98621468 118.29922507 -95.09872725 124.25516497 -88.47265625 131.12109375 C-86.141261 133.32419066 -86.141261 133.32419066 -83.18359375 132.78515625 C-82.10271484 132.39650391 -82.10271484 132.39650391 -81 132 C-81.6253269 126.01095368 -84.07327197 122.58551853 -87.50390625 117.78125 C-89.25583402 114.52440254 -89.44170527 112.64779073 -89 109 C-85.65718701 101.37520275 -76.18495031 98.06442459 -69 95 C-62.52769735 92.85496483 -53.8773631 92.6592803 -47.6875 95.625 C-44.18912559 97.67678921 -41.04239049 100.20394578 -37.95703125 102.828125 C-35.50379443 104.29712908 -33.8103451 104.21356681 -31 104 C-30.20435808 101.78647557 -30.20435808 101.78647557 -30 99 C-30.474375 98.13375 -30.94875 97.2675 -31.4375 96.375 C-33.69243151 91.50434794 -33.87211425 87.27665768 -33 82 C-29.98944936 74.4441082 -24.20724254 70.33007906 -17 67 C-8.57744289 64.32459951 -0.607692 65.83842052 7.26171875 69.44140625 C14.26907065 73.42989899 18.79804128 79.14107991 21.1875 86.8125 C21.5896875 88.3903125 21.5896875 88.3903125 22 90 C23.32 90 24.64 90 26 90 C25.9690625 88.78763672 25.9690625 88.78763672 25.9375 87.55078125 C26.10265734 78.99356643 26.10265734 78.99356643 28.56640625 76.265625 C30.65965346 75.00394175 32.76602531 73.98988189 35 73 C41.8229085 69.31688195 41.8229085 69.31688195 46 63 C46.42005256 60.05963208 46.44651878 58.68152866 44.8125 56.1875 C42.44017475 54.63321794 40.77958655 54.77462812 38 55 C37.92523438 55.59167969 37.85046875 56.18335938 37.7734375 56.79296875 C37.0927386 60.88383568 36.47456215 64.14823777 33.375 67.0625 C29.43800148 69.32262878 26.40669032 69.63729274 22 69 C18.61328125 67.390625 18.61328125 67.390625 15.3125 65.25 C5.31398716 59.12614714 -5.12398107 55.42195365 -17 57 C-25.55778906 59.07201483 -30.26064792 63.60646321 -35.80859375 70.125 C-40.66833265 75.81037196 -44.63404157 79.44332744 -52.296875 80.23828125 C-58.37887267 80.42229073 -63.03263881 79.68969858 -68 76 C-72.22646352 70.54649869 -72.23128863 64.87684767 -72.3125 58.25 C-72.34150391 57.4765625 -72.37050781 56.703125 -72.40039062 55.90625 C-72.47130206 49.40421733 -70.84794597 44.2385028 -66.50634766 39.30151367 C-63.83662502 36.99482139 -60.88420761 37.54114108 -57.51171875 37.64453125 C-53.85455367 38.16210827 -51.71916013 39.55275588 -49 42 C-47.14145447 44.50499615 -46.95324292 45.50905066 -47.25 48.625 C-48 51 -48 51 -50 53 C-50.16687448 55.58354218 -50.16687448 55.58354218 -50 58 C-47.66928121 58.41870553 -47.66928121 58.41870553 -45 58 C-41.52451497 54.91067997 -40.1803154 51.77526962 -39.85546875 47.11328125 C-40.13292154 43.05647152 -41.43712535 40.14179811 -44 37 C-50.7076666 31.30747834 -58.51070298 29.51689633 -67 28 C-67.12375 27.38253906 -67.2475 26.76507813 -67.375 26.12890625 C-69.13514149 18.90132524 -72.23273061 13.77890496 -78 9 C-81.28939544 7.80119245 -81.28939544 7.80119245 -84 8 C-84.79583645 9.82038121 -84.79583645 9.82038121 -85 12 C-83.68187004 13.77444855 -83.68187004 13.77444855 -81.75 15.3125 C-76.73364528 20.04849957 -74.8676087 24.41270858 -74.625 31.3125 C-75.02248976 43.4359378 -80.45766074 52.78158535 -88 62 C-88.495 63.485 -88.495 63.485 -89 65 C-87.02 65 -85.04 65 -83 65 C-81.98319357 67.01242939 -80.98726211 69.0354132 -80 71.0625 C-79.443125 72.18785156 -78.88625 73.31320313 -78.3125 74.47265625 C-76.87239456 78.34293962 -76.39779516 80.91186145 -77 85 C-78.94921875 86.7578125 -78.94921875 86.7578125 -81.6875 88.125 C-86.857858 91.05287326 -90.58256696 94.35749115 -94.625 98.625 C-102.77750293 107.1149469 -110.78646586 111.94571767 -122.875 112.3125 C-127.71206115 112.24599041 -131.53506741 111.4078427 -136.01953125 109.66796875 C-138.71597865 108.75851608 -141.18427856 108.78340604 -144 109 C-143.835 109.680625 -143.67 110.36125 -143.5 111.0625 C-142.24783259 118.41898354 -143.336767 122.73632381 -147 129 C-147.45890625 129.79664063 -147.9178125 130.59328125 -148.390625 131.4140625 C-156.92857143 145.92857143 -156.92857143 145.92857143 -161 150 C-171.26295636 149.17326185 -179.44920005 142.1485165 -187.140625 135.87158203 C-193.49660977 130.55023586 -193.49660977 130.55023586 -201.3125 128.3125 C-203.1378125 128.1578125 -203.1378125 128.1578125 -205 128 C-209.03200066 115.11199789 -210.123859 102.37269471 -204 90 C-202.78964799 87.76215493 -201.61268948 85.98898369 -200 84 C-199.34 84 -198.68 84 -198 84 C-197.70867187 84.59167969 -197.41734375 85.18335938 -197.1171875 85.79296875 C-194.33720272 91.15187023 -191.82707193 94.40537197 -187 98 C-183.18852426 101.50243716 -182.09117138 103.40281246 -181.7890625 108.6953125 C-181.73411556 110.17186537 -181.67944094 111.64842839 -181.625 113.125 C-181.33049514 119.58565766 -180.51925479 124.97569506 -178 131 C-176.35 130.67 -174.7 130.34 -173 130 C-173.48484276 125.35413108 -173.48484276 125.35413108 -175 121 C-176.35585092 108.72869101 -176.35585092 108.72869101 -172.625 104.0625 C-169.28662796 100.83540703 -165.27894376 98.74730491 -161.28125 96.44140625 C-157.93202516 94.32520083 -156.50279674 92.68868291 -155 89 C-154.21854468 84.06008601 -153.87288712 79.31794946 -156.10546875 74.7265625 C-157.62111989 72.67047812 -159.23677293 70.84755532 -161 69 C-162.27415245 67.5445657 -163.54502966 66.08625713 -164.8125 64.625 C-165.39644531 63.97789062 -165.98039062 63.33078125 -166.58203125 62.6640625 C-169.31090989 59.46157682 -169.161902 57.128501 -169 53 C-168.708776 51.32546201 -168.38929201 49.65449105 -168 48 C-171.65316671 49.24976756 -172.78065836 49.67098753 -175 53 C-175.61879561 59.55923345 -173.95777519 63.61646978 -169.80859375 68.66796875 C-169.02613281 69.49941406 -168.24367187 70.33085937 -167.4375 71.1875 C-160.45384022 78.65279149 -160.45384022 78.65279149 -160.6171875 85 C-161.28000232 88.46286925 -163.27623579 89.94204482 -166 92 C-170.56097519 94.73658512 -175.85038644 94.8429427 -181 94 C-188.55778301 90.92359473 -192.64275342 85.220832 -196 78 C-198.93823984 70.45750803 -199.57331092 61.83266214 -196.375 54.25 C-195.62207878 52.81236646 -194.82925 51.395 -194 50 C-193.36384766 48.89398438 -193.36384766 48.89398438 -192.71484375 47.765625 C-186.41998402 37.59565664 -177.92938901 30.95598696 -168.0234375 24.609375 C-165.31134592 22.87163231 -162.66040037 21.07495441 -160.0390625 19.203125 C-138.03096427 3.50354583 -114.74379926 -5.23728274 -87.4375 -5.125 C-86.3748291 -5.1259668 -85.3121582 -5.12693359 -84.21728516 -5.12792969 C-78.37885318 -5.10841206 -72.68016104 -4.84821849 -66.875 -4.25 C-60.46235604 -3.71501858 -55.65021585 -5.10012678 -49.5859375 -7.0625 C-33.4744692 -11.27464857 -14.83541403 -6.52758217 0 0 Z " fill="#FEB2B2" transform="translate(321,122)"/>
<path d="M0 0 C11.3789892 0.36706417 20.53798438 11.85150114 28 19.375 C28.95831708 20.4279889 29.90834064 21.48862018 30.84765625 22.55859375 C37.19079169 29.60971112 42.376452 31.93204803 51.2578125 34.28515625 C61.92967639 37.39314166 69.70346578 45.83504363 75 55.375 C76 58.3125 76 58.3125 76 61.375 C73.30879355 65.49096281 70.89045749 68.30148494 66 69.375 C62.43980101 69.12996606 60.53535146 68.83441508 57.796875 66.484375 C56.78367187 65.31648438 56.78367187 65.31648438 55.75 64.125 C49.78564961 57.78724697 42.60783948 53.67123722 33.8203125 53.20703125 C20.4447116 53.13633568 8.67812468 54.95822215 -4 59.375 C-2.61832642 59.47989746 -2.61832642 59.47989746 -1.20874023 59.58691406 C2.28694838 59.85912919 5.78115636 60.14406648 9.27514648 60.43701172 C10.772797 60.56009752 12.27084627 60.67844531 13.76928711 60.79150391 C42.60403424 62.97903424 42.60403424 62.97903424 51.375 71.75 C53 74.375 53 74.375 53.0625 77 C51.62137571 80.22133664 50.16465601 80.8482673 47 82.375 C43.44921875 82.88671875 43.44921875 82.88671875 39.6875 83.0625 C38.43324219 83.12824219 37.17898438 83.19398438 35.88671875 83.26171875 C34.93410156 83.29910156 33.98148438 83.33648437 33 83.375 C34.45449401 84.3805761 35.91372443 85.37930435 37.375 86.375 C38.18710937 86.931875 38.99921875 87.48875 39.8359375 88.0625 C41.86318187 89.54785844 41.86318187 89.54785844 44 89.375 C44.7734375 88.385 44.7734375 88.385 45.5625 87.375 C48.66409773 84.8300993 50.45038158 84.66630539 54.38671875 84.87890625 C66.36464146 87.1527421 77.26524159 96.73753973 84.25 106.4375 C87.30340731 112.10811357 86.85086136 117.47630284 85.078125 123.515625 C80.64812658 135.65497132 74.62300676 145.76726716 66 155.375 C65.33871094 156.11218262 65.33871094 156.11218262 64.6640625 156.86425781 C48.8055257 174.27952951 22.03672644 190.7530312 -1.6953125 193.7109375 C-5.94232457 193.77921744 -8.37596815 193.73693847 -12.125 191.5625 C-14 189.375 -14 189.375 -14 186.375 C-18.98291295 188.10919244 -23.95652495 189.86664116 -28.92382812 191.64501953 C-30.54922455 192.21650769 -32.18671119 192.75363299 -33.828125 193.27734375 C-40.8195924 195.66728414 -46.23703871 200.01805259 -52.0625 204.4296875 C-58.17275495 209.0457184 -64.55673443 213.24181995 -71 217.375 C-72.09828125 218.08269531 -73.1965625 218.79039062 -74.328125 219.51953125 C-84.39457569 225.72886202 -84.39457569 225.72886202 -91 225.375 C-93.5 223.75 -93.5 223.75 -95 221.375 C-95.3203125 218.9609375 -95.3203125 218.9609375 -95 216.375 C-89.34268522 209.01151092 -79.82094021 204.18104007 -72 199.375 C-73.18589722 199.33741577 -73.18589722 199.33741577 -74.39575195 199.29907227 C-78.03478302 199.18185565 -81.67363325 199.05970755 -85.3125 198.9375 C-86.55580078 198.89818359 -87.79910156 198.85886719 -89.08007812 198.81835938 C-97.56596779 198.52881458 -105.9613437 197.93678122 -114.3984375 196.99609375 C-122.33774939 196.50639866 -128.13099571 198.2451651 -135.4375 201.1875 C-157.26595305 209.96160663 -179.86032576 210.59561087 -203 206.375 C-203 205.385 -203 204.395 -203 203.375 C-183.56423858 197.03323624 -183.56423858 197.03323624 -173.6640625 195.11328125 C-169.99431206 194.09629762 -166.95183484 192.6894386 -164.6875 189.5625 C-163.7906723 186.70895733 -163.74154485 184.34723418 -164 181.375 C-166.84614024 178.52885976 -169.80369142 178.91920924 -173.625 178.75 C-174.68460938 178.69199219 -174.68460938 178.69199219 -175.765625 178.6328125 C-177.50998524 178.53852276 -179.25495691 178.45567109 -181 178.375 C-181.28488281 177.26382813 -181.56976563 176.15265625 -181.86328125 175.0078125 C-182.69673309 171.33195922 -182.69673309 171.33195922 -185.1875 169.25 C-186.0846875 168.321875 -186.0846875 168.321875 -187 167.375 C-186.75 164.625 -186.75 164.625 -186 162.375 C-183.72265625 161.6796875 -183.72265625 161.6796875 -181 161.375 C-179.18359375 162.6328125 -179.18359375 162.6328125 -177.4375 164.5 C-169.47483995 172.08348577 -158.89770462 174.78829141 -148.16796875 174.64453125 C-141.06851248 174.04050846 -135.8262065 171.70154791 -131 166.4375 C-126.23790714 160.33081621 -125.14777458 155.08262695 -126 147.375 C-126.64897582 146.03296699 -127.31339402 144.6981759 -128 143.375 C-127.47368421 138.84868421 -127.47368421 138.84868421 -126 137.375 C-123.6875 137 -123.6875 137 -121 137.375 C-117.81163653 140.27351224 -116.56041077 143.41728306 -115.125 147.375 C-112.98330167 153.04122551 -110.34507371 155.4722354 -105.0703125 158.47265625 C-100.55773449 160.43945912 -96.00366055 160.04991724 -91.40234375 158.5 C-84.14045383 155.17026465 -79.27262742 150.83514969 -76.125 143.4375 C-74.03418315 137.04206022 -74.95628079 130.76494249 -75.9765625 124.2578125 C-75.98429688 123.63648438 -75.99203125 123.01515625 -76 122.375 C-75.34 121.715 -74.68 121.055 -74 120.375 C-71.18227369 120.55678879 -70.21175447 121.13971725 -68.3125 123.25 C-66.10192394 126.82902791 -65.86382917 129.69605011 -65.875 133.8125 C-65.87242187 134.75996094 -65.86984375 135.70742187 -65.8671875 136.68359375 C-65.98634822 139.09835078 -66.38912791 141.05368604 -67 143.375 C-67.39621987 147.63436361 -67.45908384 151.26353387 -65.8125 155.25 C-62.89944927 158.66530086 -60.48078796 160.18990151 -56 160.75 C-52.57332793 160.32166599 -50.89378831 159.21008527 -48 157.375 C-41.28037139 154.71514701 -32.34831074 153.61628833 -25.546875 156.3671875 C-24.83015625 156.72039062 -24.1134375 157.07359375 -23.375 157.4375 C-21.30070469 158.427379 -21.30070469 158.427379 -19 158.375 C-14.44264221 155.70551866 -9.41212638 152.19925276 -7 147.375 C-8.11375 147.0346875 -8.11375 147.0346875 -9.25 146.6875 C-13.12231313 144.83935055 -15.20205749 142.07871509 -17.01171875 138.21484375 C-19.87969878 135.56097618 -22.19209429 136.05298927 -25.98242188 136.16992188 C-27.32143555 136.24049805 -27.32143555 136.24049805 -28.6875 136.3125 C-35.57120889 136.65287527 -40.73854169 136.48428581 -47 133.375 C-48.0625 130.25 -48.0625 130.25 -48 127.375 C-47 126.375 -47 126.375 -44.1875 126.1875 C-41 126.375 -41 126.375 -39.08984375 127.359375 C-34.46289326 129.60798645 -29.21450902 129.06203141 -24.40625 127.5703125 C-15.63140861 123.64330015 -9.72328192 116.82345505 -5.69140625 108.19921875 C-1.37828987 96.81941452 -3.64645644 85.41322932 -8.296875 74.6796875 C-11.33614018 68.12637274 -11.33614018 68.12637274 -17 64.375 C-17 63.715 -17 63.055 -17 62.375 C-17.86238281 61.94574219 -17.86238281 61.94574219 -18.7421875 61.5078125 C-20.15605027 60.79843499 -21.55939483 60.06722052 -22.9453125 59.3046875 C-29.62467151 56.07273959 -35.66647359 56.05673664 -42.93017578 56.34716797 C-44.95215781 56.42007494 -46.97691557 56.40425949 -49 56.375 C-49.66 55.715 -50.32 55.055 -51 54.375 C-50.8125 52.375 -50.8125 52.375 -50 50.375 C-46.71508627 48.18505752 -45.16904361 48.02222661 -41.3125 47.75 C-40.31863281 47.67523438 -39.32476562 47.60046875 -38.30078125 47.5234375 C-37.54152344 47.47445312 -36.78226563 47.42546875 -36 47.375 C-41.05065315 39.3721026 -46.20972477 33.29197809 -55 29.375 C-57.59002356 28.90964186 -59.35183562 29.04397945 -62 29.375 C-62.99 29.045 -63.98 28.715 -65 28.375 C-68.11979677 28.0749465 -71.24245035 28.05173881 -74.375 28 C-75.22578125 27.96261719 -76.0765625 27.92523438 -76.953125 27.88671875 C-81.41278754 27.82420012 -83.3826985 27.91458611 -87.05859375 30.65625 C-89.16339796 33.6038229 -89.79214268 35.67139044 -89.55078125 39.3125 C-88.50229343 43.23875226 -86.08001067 45.82602565 -83 48.375 C-78.83046625 50.41343872 -74.6270002 50.71510361 -70.05078125 51.03125 C-68 51.375 -68 51.375 -65 53.375 C-64.8125 56 -64.8125 56 -65 58.375 C-67.20805524 58.4294452 -69.41650554 58.46799283 -71.625 58.5 C-72.85476563 58.52320313 -74.08453125 58.54640625 -75.3515625 58.5703125 C-78.96508637 58.37686904 -81.61937903 57.59050417 -85 56.375 C-87.33212027 56.29977031 -89.6685311 56.28174124 -92 56.375 C-92.66 57.695 -93.32 59.015 -94 60.375 C-95.65 60.375 -97.3 60.375 -99 60.375 C-98.95359375 59.43398437 -98.9071875 58.49296875 -98.859375 57.5234375 C-98.58828986 50.01256603 -98.58828986 50.01256603 -100.375 42.8125 C-106.00218337 37.5872583 -112.68099501 35.05183831 -120.1875 33.83203125 C-122 33.375 -122 33.375 -124 31.375 C-124.1875 28.8125 -124.1875 28.8125 -124 26.375 C-123.505 25.88 -123.505 25.88 -123 25.375 C-119.37909849 25.73709015 -116.09917889 26.34377702 -112.625 27.4375 C-106.91479605 28.91427688 -102.55154893 29.76032851 -97.1796875 26.84375 C-95.16998728 25.56341879 -93.16088091 24.282155 -91.15234375 23 C-86.24153677 20.46853073 -81.4480523 20.30738233 -76 20.375 C-92.29952259 14.46839569 -110.03512458 9.88342382 -127.0625 15.4375 C-134.66077913 17.8868885 -141.16485269 17.26627839 -149 16.375 C-151.6445663 16.16180059 -154.29000685 15.98846631 -156.9375 15.8125 C-158.9583598 15.6670339 -160.9792036 15.52134427 -163 15.375 C-157.85944882 11.0213974 -151.30301775 9.42225382 -145 7.375 C-144.22269531 7.12234375 -143.44539063 6.8696875 -142.64453125 6.609375 C-135.27423623 4.61355043 -127.56114506 5.16958335 -120 5.375 C-118.65470215 5.40400391 -118.65470215 5.40400391 -117.28222656 5.43359375 C-90.96070188 6.04301278 -70.44268273 12.44380057 -46.625 23.4375 C-44.95896729 24.20404907 -44.95896729 24.20404907 -43.25927734 24.98608398 C-38.6007401 27.15034389 -33.99031875 29.32843494 -29.5078125 31.83984375 C-22.99374893 35.4858879 -22.99374893 35.4858879 -15.69140625 36.0078125 C-12.28195912 35.03565532 -12.28195912 35.03565532 -8.91796875 33.7109375 C-4.12760293 31.91693596 0.82854932 31.31790298 5.875 30.625 C6.77436279 30.49818848 7.67372559 30.37137695 8.6003418 30.24072266 C10.73246266 29.9441409 12.86608401 29.65837717 15 29.375 C13.69675781 28.1065625 13.69675781 28.1065625 12.3671875 26.8125 C-3.70196258 11.05733679 -3.70196258 11.05733679 -4.4375 4.4375 C-3.87272727 0.48409091 -3.87272727 0.48409091 0 0 Z " fill="#D19A63" transform="translate(395,101.625)"/>
<path d="M0 0 C2.78390632 5.44781668 4.85137058 10.71138889 5.8125 16.75 C6.76886494 22.04242632 9.03705978 26.25189331 11.5546875 30.96484375 C12.98996902 33.97893494 13.81087385 36.7559124 14.5625 40 C15.67336126 44.71274472 17.18015617 46.02901035 21 49 C20.92524733 53.26090222 20.36999926 55.44500111 18 59 C17.68428936 60.94488042 17.68428936 60.94488042 17.69140625 63.0546875 C17.66626953 63.83457031 17.64113281 64.61445313 17.61523438 65.41796875 C17.58024743 67.04810116 17.54896094 68.67831745 17.52148438 70.30859375 C17.36377213 74.97841477 17.1917505 78.34038246 14 82 C11.55724474 83.83140644 8.97624956 85.32644559 6.3125 86.8125 C5.55646484 87.24336914 4.80042969 87.67423828 4.02148438 88.11816406 C1.69160012 89.43248262 -0.65038246 90.72133385 -3 92 C-3.68916504 92.37624512 -4.37833008 92.75249023 -5.08837891 93.14013672 C-11.62075 96.66150551 -18.04972458 99.78823657 -25.15234375 101.97436523 C-36.08789594 105.3662701 -44.39069349 111.46948282 -53.53662109 118.21923828 C-57.37336897 120.99280013 -61.32872362 123.56897873 -65.3125 126.125 C-65.98732422 126.56158936 -66.66214844 126.99817871 -67.35742188 127.44799805 C-80.68173887 136 -80.68173887 136 -88 136 C-90.5 134.375 -90.5 134.375 -92 132 C-92.3203125 129.5859375 -92.3203125 129.5859375 -92 127 C-86.34268522 119.63651092 -76.82094021 114.80604007 -69 110 C-70.18589722 109.96241577 -70.18589722 109.96241577 -71.39575195 109.92407227 C-75.03478302 109.80685565 -78.67363325 109.68470755 -82.3125 109.5625 C-83.55580078 109.52318359 -84.79910156 109.48386719 -86.08007812 109.44335938 C-94.56596779 109.15381458 -102.9613437 108.56178122 -111.3984375 107.62109375 C-119.33774939 107.13139866 -125.13099571 108.8701651 -132.4375 111.8125 C-154.26595305 120.58660663 -176.86032576 121.22061087 -200 117 C-200 116.01 -200 115.02 -200 114 C-180.56423858 107.65823624 -180.56423858 107.65823624 -170.6640625 105.73828125 C-166.99431206 104.72129762 -163.95183484 103.3144386 -161.6875 100.1875 C-160.7906723 97.33395733 -160.74154485 94.97223418 -161 92 C-163.84614024 89.15385976 -166.80369142 89.54420924 -170.625 89.375 C-171.33140625 89.33632813 -172.0378125 89.29765625 -172.765625 89.2578125 C-174.50998524 89.16352276 -176.25495691 89.08067109 -178 89 C-178.28488281 87.88882813 -178.56976563 86.77765625 -178.86328125 85.6328125 C-179.69673309 81.95695922 -179.69673309 81.95695922 -182.1875 79.875 C-182.785625 79.25625 -183.38375 78.6375 -184 78 C-183.75 75.25 -183.75 75.25 -183 73 C-180.72265625 72.3046875 -180.72265625 72.3046875 -178 72 C-176.18359375 73.2578125 -176.18359375 73.2578125 -174.4375 75.125 C-166.47483995 82.70848577 -155.89770462 85.41329141 -145.16796875 85.26953125 C-138.06851248 84.66550846 -132.8262065 82.32654791 -128 77.0625 C-123.23790714 70.95581621 -122.14777458 65.70762695 -123 58 C-123.64897582 56.65796699 -124.31339402 55.3231759 -125 54 C-124.47368421 49.47368421 -124.47368421 49.47368421 -123 48 C-120.6875 47.625 -120.6875 47.625 -118 48 C-114.81163653 50.89851224 -113.56041077 54.04228306 -112.125 58 C-109.98330167 63.66622551 -107.34507371 66.0972354 -102.0703125 69.09765625 C-97.55773449 71.06445912 -93.00366055 70.67491724 -88.40234375 69.125 C-81.14045383 65.79526465 -76.27262742 61.46014969 -73.125 54.0625 C-71.03418315 47.66706022 -71.95628079 41.38994249 -72.9765625 34.8828125 C-72.98429688 34.26148438 -72.99203125 33.64015625 -73 33 C-72.01 32.01 -72.01 32.01 -71 31 C-68.18227369 31.18178879 -67.21175447 31.76471725 -65.3125 33.875 C-63.10192394 37.45402791 -62.86382917 40.32105011 -62.875 44.4375 C-62.87242187 45.38496094 -62.86984375 46.33242187 -62.8671875 47.30859375 C-62.98634822 49.72335078 -63.38912791 51.67868604 -64 54 C-64.39621987 58.25936361 -64.45908384 61.88853387 -62.8125 65.875 C-59.89944927 69.29030086 -57.48078796 70.81490151 -53 71.375 C-49.57332793 70.94666599 -47.89378831 69.83508527 -45 68 C-38.28037139 65.34014701 -29.34831074 64.24128833 -22.546875 66.9921875 C-21.83015625 67.34539062 -21.1134375 67.69859375 -20.375 68.0625 C-18.30070469 69.052379 -18.30070469 69.052379 -16 69 C-11.44264221 66.33051866 -6.41212638 62.82425276 -4 58 C-4.7425 57.773125 -5.485 57.54625 -6.25 57.3125 C-10.12231313 55.46435055 -12.20205749 52.70371509 -14.01171875 48.83984375 C-16.87969878 46.18597618 -19.19209429 46.67798927 -22.98242188 46.79492188 C-23.87509766 46.84197266 -24.76777344 46.88902344 -25.6875 46.9375 C-32.57120889 47.27787527 -37.73854169 47.10928581 -44 44 C-45.0625 40.875 -45.0625 40.875 -45 38 C-44 37 -44 37 -41.1875 36.8125 C-38 37 -38 37 -36.08984375 37.984375 C-31.46289326 40.23298645 -26.21450902 39.68703141 -21.40625 38.1953125 C-12.63140861 34.26830015 -6.72328192 27.44845505 -2.69140625 18.82421875 C-1.11425868 14.66304409 -0.74797366 10.68533799 -0.4375 6.25 C-0.35371094 5.07953125 -0.26992188 3.9090625 -0.18359375 2.703125 C-0.12300781 1.81109375 -0.06242188 0.9190625 0 0 Z " fill="#F07472" transform="translate(392,191)"/>
<path d="M0 0 C0.69544922 0.18079102 1.39089844 0.36158203 2.10742188 0.54785156 C14.03222942 3.79755538 22.85400075 9.26155733 29.125 20.1875 C31.125 23.96381579 31.125 23.96381579 31.125 26.3125 C31.96675781 26.42335938 32.80851562 26.53421875 33.67578125 26.6484375 C44.35520739 28.70449916 54.39397877 33.97736506 63.125 40.3125 C63.78757813 40.71339844 64.45015625 41.11429687 65.1328125 41.52734375 C67.1912903 43.0257241 68.05969513 43.97918042 69.125 46.3125 C70.71716601 57.8086908 68.94748267 67.36852237 62 76.8125 C60.73328471 78.33362957 59.43994802 79.83286677 58.125 81.3125 C57.40441406 82.1271875 56.68382812 82.941875 55.94140625 83.78125 C39.16635889 101.63056148 8.38460406 116.87032803 -16.21484375 118.5390625 C-18.875 118.3125 -18.875 118.3125 -20.875 116.3125 C-26.42388372 97.24603489 -14.04457704 70.50980868 -5.37255859 54.10351562 C-2.05239197 48.15967675 2.0629551 42.76324092 6.125 37.3125 C-13.08615732 37.97043745 -32.01730205 38.6647665 -50.87792969 42.63549805 C-57.65616414 44.04912641 -63.95023822 44.60549376 -70.875 44.3125 C-72.23008915 39.61518553 -70.97800947 37.42110004 -68.72265625 33.16796875 C-65.12158319 27.60267401 -60.53871779 22.98284239 -55.875 18.3125 C-55.215 17.64089844 -54.555 16.96929687 -53.875 16.27734375 C-39.80697767 2.96729676 -19.06104677 -4.98505296 0 0 Z " fill="#6E9821" transform="translate(85.875,361.6875)"/>
<path d="M0 0 C4.37767555 0 6.62828438 1.24519708 9.6875 4.1875 C14.45977734 9.36010083 16.29807899 13.98078994 17 21 C17.82242188 21.07476562 18.64484375 21.14953125 19.4921875 21.2265625 C28.92957268 22.33812519 36.12131429 24.64830383 42.5625 31.875 C44.29296184 35.63687357 45.22393753 38.84471469 45 43 C43.66285141 46.54344377 42.17282995 49.80342542 39 52 C36.375 52.25 36.375 52.25 34 52 C33 51 33 51 32.75 48.6875 C33 46 33 46 34.5625 44 C36.253517 42.07192759 36.253517 42.07192759 35.9375 39.5 C34.57734561 35.87292164 32.45286197 33.72643099 29 32 C25.61529646 31.58723128 22.3787261 31.5134197 19 32 C15.4272249 35.12617821 13.2973673 39.19110347 12.79248047 43.96020508 C12.69481477 46.24767896 12.6780472 48.52303101 12.6875 50.8125 C12.67138672 51.58142578 12.65527344 52.35035156 12.63867188 53.14257812 C12.63395107 58.73673387 13.58893221 62.92901567 16 68 C20.1280238 72.04222192 25.78486737 72.44293097 31.3125 72.43359375 C41.04402436 70.86353677 45.12165018 66.17664681 51.1796875 58.89257812 C56.55801003 52.74510989 62.07926993 49.83132831 70.14453125 48.46875 C82.60952659 48.61475287 92.34148928 52.72915518 102.61328125 59.390625 C106.8954138 61.42550229 109.30653039 61.40452542 114 61 C117.02928108 59.72675163 117.02928108 59.72675163 119 57 C119.74858376 54.64730817 120.24197055 52.36155994 120.640625 49.92578125 C121 48 121 48 122 47 C125.19031653 46.56887615 126.62772151 46.76487674 129.375 48.5 C131.30870786 51.47493517 131.44844558 53.5069358 130.78515625 56.984375 C128.91487999 61.78568123 124.66610793 64.25749538 120.125 66.28125 C117.06598708 67.65143287 114.56320795 68.82943492 112 71 C110.76608036 75.06100135 110.70681204 78.7862753 111 83 C108.525 83.495 108.525 83.495 106 84 C104 81 104 81 103.375 77.875 C101.57557316 71.44068584 96.80899703 66.6838355 91.19140625 63.31640625 C83.55019057 59.80880009 76.45076113 58.46600008 68.265625 60.76953125 C61.53800186 63.26750966 56.2043298 66.31530884 52.7265625 72.875 C50.83897524 78.39568531 51.13694516 84.13580154 53.5625 89.375 C54.036875 90.24125 54.51125 91.1075 55 92 C54.6097561 96.3902439 54.6097561 96.3902439 53 98 C48.76582771 98.66976907 46.48832645 97.30295234 43.0859375 94.84960938 C42.52132812 94.42486328 41.95671875 94.00011719 41.375 93.5625 C33.8373537 88.0196137 28.329036 87.2574422 19 88 C10.8997759 89.85541783 3.05890349 93.79613567 -2.75 99.8125 C-4.47322325 102.82814068 -4.48010684 104.56277493 -4 108 C-2.40202444 110.91272132 -0.66849298 113.52944381 1.24414062 116.23242188 C3.11435425 119.02284681 4.04432174 120.49336843 3.74609375 123.90234375 C3.49988281 124.59457031 3.25367188 125.28679687 3 126 C0.8515625 126.8203125 0.8515625 126.8203125 -2 127 C-4.11019512 125.34933161 -5.79782654 123.79603718 -7.625 121.875 C-14.15670708 115.49003874 -20.76269682 110.92672642 -30.1875 110.4375 C-37.47715044 110.89814142 -42.13136022 113.78883425 -47.125 119 C-54.55124982 127.92900764 -57.92194588 137.69830214 -60 149 C-66.31121503 147.9007105 -72.06338584 146.41862058 -78 144 C-77.64808594 143.57332031 -77.29617187 143.14664063 -76.93359375 142.70703125 C-72.83173842 137.51277581 -69.74152564 132.02464832 -66.7109375 126.1484375 C-65 123 -65 123 -62.8515625 119.7890625 C-59.48744129 114.72158878 -59.40893372 110.02100544 -60.5625 104.125 C-60.7790625 103.073125 -60.7790625 103.073125 -61 102 C-60 101 -60 101 -57.5 100.75 C-54.41086924 100.9706522 -52.68443466 101.41709064 -49.875 102.5 C-41.26037635 105.5208999 -32.86758916 104.69426181 -24.515625 101.24609375 C-17.51540682 97.77859437 -12.5217003 92.54635131 -7.16088867 86.98291016 C-3.21552792 82.98853442 0.89707653 80.2805658 6 78 C6.65136649 72.00742826 5.01247817 68.4556554 2.09375 63.234375 C1 61 1 61 1 58 C-0.98 58 -2.96 58 -5 58 C-4.38153332 54.39640082 -2.86817936 52.2122899 -0.6875 49.3125 C6.08610287 39.88230956 9.16425272 30.67532308 8 19 C6.59076591 14.29718454 4.24447749 11.07482046 0.6875 7.75 C-0.199375 6.8425 -1.08625 5.935 -2 5 C-1.72959845 2.88381398 -1.52912617 1.52912617 0 0 Z " fill="#EA6464" transform="translate(237,129)"/>
<path d="M0 0 C2.78390632 5.44781668 4.85137058 10.71138889 5.8125 16.75 C6.76886494 22.04242632 9.03705978 26.25189331 11.5546875 30.96484375 C12.98996902 33.97893494 13.81087385 36.7559124 14.5625 40 C15.67336126 44.71274472 17.18015617 46.02901035 21 49 C20.92524733 53.26090222 20.36999926 55.44500111 18 59 C17.68428936 60.94488042 17.68428936 60.94488042 17.69140625 63.0546875 C17.66626953 63.83457031 17.64113281 64.61445313 17.61523438 65.41796875 C17.58024743 67.04810116 17.54896094 68.67831745 17.52148438 70.30859375 C17.36377213 74.97841477 17.1917505 78.34038246 14 82 C11.55724474 83.83140644 8.97624956 85.32644559 6.3125 86.8125 C5.55646484 87.24336914 4.80042969 87.67423828 4.02148438 88.11816406 C1.69160012 89.43248262 -0.65038246 90.72133385 -3 92 C-3.68916504 92.37624512 -4.37833008 92.75249023 -5.08837891 93.14013672 C-11.62075 96.66150551 -18.04972458 99.78823657 -25.15234375 101.97436523 C-36.08789594 105.3662701 -44.39069349 111.46948282 -53.53662109 118.21923828 C-57.37336897 120.99280013 -61.32872362 123.56897873 -65.3125 126.125 C-65.98732422 126.56158936 -66.66214844 126.99817871 -67.35742188 127.44799805 C-80.68173887 136 -80.68173887 136 -88 136 C-90.5 134.375 -90.5 134.375 -92 132 C-92.32446289 129.5871582 -92.32446289 129.5871582 -92 127 C-86.8612043 120.43914763 -78.71435973 115.92353961 -71.81015015 111.44708252 C-68.80674224 109.49725628 -65.82198625 107.51923658 -62.8359375 105.54296875 C-61.94986061 104.95733154 -61.94986061 104.95733154 -61.04588318 104.35986328 C-47.97767518 95.70355851 -35.70789763 86.41556727 -24 76 C-22.60524086 74.76961456 -21.20958622 73.54024243 -19.8125 72.3125 C-19.21953125 71.78914063 -18.6265625 71.26578125 -18.015625 70.7265625 C-14.48826408 67.70506342 -10.85062228 64.81734738 -7.22265625 61.91796875 C-4.93666852 60.19416673 -4.93666852 60.19416673 -4 58 C-4.7425 57.773125 -5.485 57.54625 -6.25 57.3125 C-10.12231313 55.46435055 -12.20205749 52.70371509 -14.01171875 48.83984375 C-16.87969878 46.18597618 -19.19209429 46.67798927 -22.98242188 46.79492188 C-24.32143555 46.86549805 -24.32143555 46.86549805 -25.6875 46.9375 C-32.57120889 47.27787527 -37.73854169 47.10928581 -44 44 C-45.0625 40.875 -45.0625 40.875 -45 38 C-44 37 -44 37 -41.1875 36.8125 C-38 37 -38 37 -36.08984375 37.984375 C-31.46289326 40.23298645 -26.21450902 39.68703141 -21.40625 38.1953125 C-12.63140861 34.26830015 -6.72328192 27.44845505 -2.69140625 18.82421875 C-1.11425868 14.66304409 -0.74797366 10.68533799 -0.4375 6.25 C-0.31181641 4.49429688 -0.31181641 4.49429688 -0.18359375 2.703125 C-0.12300781 1.81109375 -0.06242187 0.9190625 0 0 Z " fill="#D29A64" transform="translate(392,191)"/>
<path d="M0 0 C1.70349609 0.28423828 1.70349609 0.28423828 3.44140625 0.57421875 C5.58639776 0.9574403 7.71664891 1.37233984 9.84741211 1.82910156 C18.767603 3.65172685 27.59190915 3.6657477 36.66992188 3.703125 C37.87068359 3.72632813 39.07144531 3.74953125 40.30859375 3.7734375 C41.93172485 3.78576416 41.93172485 3.78576416 43.58764648 3.79833984 C47.11159022 4.43411689 48.32557602 5.45854868 50.4375 8.3125 C50.4375 12.20425615 50.05603905 14.46487242 47.75 17.625 C41.93559908 21.86794121 35.60141635 21.5790259 28.6796875 21.67578125 C24.52777393 22.49115705 23.8194624 23.92240414 21.4375 27.3125 C4.21796524 40.93519115 -18.25136408 41.06445327 -39.203125 38.921875 C-57.3973668 36.44918965 -91.98569398 28.10598933 -103.5625 13.3125 C-103.93091966 9.87391649 -104.14617385 7.41118019 -102.5 4.3125 C-99.40501661 2.71508922 -96.92631385 3.67104338 -93.5625 4.3125 C-90.96960572 5.17502547 -88.46129808 6.07535602 -85.92578125 7.078125 C-84.45715426 7.6428658 -82.98831482 8.20705435 -81.51928711 8.77075195 C-80.76082489 9.06422516 -80.00236267 9.35769836 -79.22091675 9.6600647 C-54.6808643 19.10021626 -27.62941794 29.17095141 -1.4921875 19.1875 C-0.85539062 18.89875 -0.21859375 18.61 0.4375 18.3125 C-0.26117188 17.92578125 -0.95984375 17.5390625 -1.6796875 17.140625 C-2.58976562 16.61984375 -3.49984375 16.0990625 -4.4375 15.5625 C-5.34242188 15.05203125 -6.24734375 14.5415625 -7.1796875 14.015625 C-9.68060508 12.22808391 -10.58952866 11.19181634 -11.5625 8.3125 C-11.42560991 4.95869277 -11.26537597 3.05043629 -8.91796875 0.5859375 C-5.63163085 -1.19075596 -3.64754264 -0.63984826 0 0 Z " fill="#D19A63" transform="translate(323.5625,333.6875)"/>
<path d="M0 0 C2.87666969 1.07336395 5.57946634 2.41814001 8.3125 3.8125 C14.75131137 6.97854927 21.17141536 9.75821843 28 12 C25.81928508 14.18071492 23.61234909 15.20990141 20.84667969 16.51171875 C12.41174075 20.4875726 5.09044131 25.24032512 -2.359375 30.80810547 C-4.91936343 32.66790659 -7.58740971 34.35423097 -10.25 36.0625 C-20.49656414 42.85255651 -29.21686308 51.04247741 -35 62 C-35.1134375 62.66 -35.226875 63.32 -35.34375 64 C-36 66 -36 66 -37.63671875 67.265625 C-45.32536521 70.9561753 -45.32536521 70.9561753 -50 70 C-52.4375 67.9375 -52.4375 67.9375 -54 65 C-54.20468513 59.57584411 -52.29334813 56.18943078 -48.99609375 52.109375 C-43.74913015 46.56463851 -37.64935046 42.06496438 -31.30786133 37.85791016 C-30.50028885 37.32154938 -29.69271637 36.7851886 -28.860672 36.23257446 C-28.24665024 35.82582489 -27.63262848 35.41907532 -27 35 C-27.59166962 34.97938507 -28.18333923 34.95877014 -28.79293823 34.93753052 C-34.99092474 34.71996478 -41.18841291 34.49090113 -47.38574219 34.25537109 C-49.69390361 34.16912997 -52.0021739 34.08575077 -54.31054688 34.00537109 C-57.64225985 33.88884745 -60.97343621 33.76179219 -64.3046875 33.6328125 C-65.32488983 33.59938751 -66.34509216 33.56596252 -67.39620972 33.53152466 C-83.16526412 32.88982392 -83.16526412 32.88982392 -89 29 C-88.92478893 25.84113505 -88.62522327 23.69915712 -86.48046875 21.30078125 C-81.54189194 17.00681868 -78.23569579 15.87362238 -71.62109375 15.8671875 C-70.31962402 15.86525391 -69.0181543 15.86332031 -67.67724609 15.86132812 C-66.26399605 15.86544539 -64.85074725 15.87001287 -63.4375 15.875 C-62.36813202 15.87632935 -62.36813202 15.87632935 -61.27716064 15.87768555 C-50.39393184 15.89352323 -39.53788856 16.1614601 -28.66430664 16.6418457 C-21.10095337 16.97560265 -13.57175354 17.12390142 -6 17 C-6.94875 16.2575 -7.8975 15.515 -8.875 14.75 C-13.37819247 10.93137836 -13.37819247 10.93137836 -14 8 C-12.8125 4.9375 -12.8125 4.9375 -11 2 C-10.608125 1.360625 -10.21625 0.72125 -9.8125 0.0625 C-6.71554515 -1.75295629 -3.35525886 -0.74565379 0 0 Z " fill="#D19A63" transform="translate(161,113)"/>
<path d="M0 0 C3 2 3 2 3.6328125 4.8359375 C3.87644531 6.58777344 3.87644531 6.58777344 4.125 8.375 C5.49083612 15.54931125 8.34256417 19.68377964 12.9140625 25.25390625 C15.73405888 28.96637339 16.88750784 32.53317544 18 37 C22.14185504 52.62608946 37.83750882 64.41595695 50 74 C51.48113281 75.18916016 51.48113281 75.18916016 52.9921875 76.40234375 C65.43239655 86.22111224 78.55938865 94.5949943 92.75634766 101.65234375 C100.32258591 105.46525122 100.32258591 105.46525122 103 109 C103.72771233 111.73962288 103.57971577 114.23214139 103 117 C101.12984906 119.43119623 99.71861655 120.64069173 97 122 C78.05424638 121.69442333 62.2716231 104.95886655 48.85400391 93.17138672 C45.9033106 90.58428595 42.89396811 88.15330752 39.7578125 85.79296875 C34.23558157 81.5285115 29.35624326 76.68655189 24.4375 71.75 C23.54353516 70.87214844 22.64957031 69.99429688 21.72851562 69.08984375 C13.99163375 61.35862163 6.30037909 53.45483283 3.5625 42.625 C1.98568483 37.05396761 -0.18228298 32.77627921 -3.625 28.125 C-8.39411554 21.62310581 -11.46197361 16.39179021 -10.875 8.1875 C-9.67496439 1.0372878 -7.44628631 -0.79781639 0 0 Z " fill="#D19A63" transform="translate(19,227)"/>
<path d="M0 0 C5.44858992 1.29773771 9.79224422 5.75911706 14.04296875 9.21875 C37.8366154 27.72721653 62.49687937 30.25541601 91.77612305 30.21875 C92.77038803 30.22143387 93.76465302 30.22411774 94.78904724 30.22688293 C96.68097821 30.22922669 98.57298604 30.21814759 100.46473694 30.19194031 C101.7356443 30.19300529 101.7356443 30.19300529 103.03222656 30.1940918 C103.77337708 30.18709763 104.51452759 30.18010345 105.27813721 30.17289734 C107.81054535 30.63772372 108.6876593 31.50204227 110.23046875 33.53125 C110.6684418 36.88904342 110.43907389 39.0158726 109.16796875 42.15625 C103.75202242 48.79515195 94.98988143 50.49447479 86.85351562 51.3828125 C58.86769033 52.96652264 26.810533 45.76525677 4.63671875 27.9765625 C3.23046875 26.53125 3.23046875 26.53125 3.23046875 24.53125 C2.63492188 24.27085937 2.039375 24.01046875 1.42578125 23.7421875 C-0.91187294 22.45273412 -2.193377 21.19585378 -3.89453125 19.15625 C-4.39210938 18.57101562 -4.8896875 17.98578125 -5.40234375 17.3828125 C-8.58139607 13.07746736 -9.25165955 9.93108697 -8.76953125 4.53125 C-6.98052144 0.17053858 -4.51577713 0.07210822 0 0 Z " fill="#D29A64" transform="translate(121.76953125,249.46875)"/>
<path d="M0 0 C2.94153106 2.46709056 2.92450945 3.49292938 3.3125 7.4375 C3.25170563 10.79334943 2.98661989 11.55592516 0.9375 14.4375 C-1.6272575 16.30763568 -3.21797895 17.14150316 -6.125 18.125 C-11.4621382 19.94083085 -13.18627551 22.99772594 -15.8125 27.875 C-21.92252864 45.86751527 -13.8670159 66.54516213 -6.0625 82.625 C-5.25584557 84.1489419 -4.44473439 85.67055379 -3.625 87.1875 C-1.90367501 90.97441498 -1.64273765 93.51132894 -2.0625 97.625 C-3.0625 98.625 -3.0625 98.625 -5.8203125 98.9375 C-9.85838111 98.54828857 -11.05642447 97.42106018 -13.9375 94.625 C-14.79730469 93.79871094 -15.65710938 92.97242188 -16.54296875 92.12109375 C-17.37441406 91.29738281 -18.20585938 90.47367187 -19.0625 89.625 C-19.78050781 88.95597656 -20.49851562 88.28695312 -21.23828125 87.59765625 C-34.16351971 75.3249541 -40.74662017 60.51089055 -42.3125 42.796875 C-42.62792982 30.25853978 -38.93529475 17.72155247 -30.75 8.125 C-23.02138457 0.11347353 -10.84455822 -4.86898532 0 0 Z " fill="#D19A63" transform="translate(89.0625,176.375)"/>
<path d="M0 0 C1.34529785 0.02900391 1.34529785 0.02900391 2.71777344 0.05859375 C38.79877325 0.8939727 68.25598922 14.60854716 100 31 C97.54318365 33.82078915 94.95225315 35.1559019 91.5625 36.6875 C90.61503906 37.12449219 89.66757812 37.56148437 88.69140625 38.01171875 C86 39 86 39 82 39 C80.68359375 37.49609375 80.68359375 37.49609375 79.4375 35.4375 C75.57616466 29.93950729 69.62281865 24.85267179 62.83984375 23.6015625 C60.80044717 23.5933813 60.80044717 23.5933813 58 24 C56.515 23.505 56.515 23.505 55 23 C51.88020323 22.6999465 48.75754965 22.67673881 45.625 22.625 C44.77421875 22.58761719 43.9234375 22.55023438 43.046875 22.51171875 C38.58721246 22.44920012 36.6173015 22.53958611 32.94140625 25.28125 C30.83660204 28.2288229 30.20785732 30.29639044 30.44921875 33.9375 C31.49770657 37.86375226 33.91998933 40.45102565 37 43 C41.16953375 45.03843872 45.3729998 45.34010361 49.94921875 45.65625 C52 46 52 46 55 48 C55.1875 50.625 55.1875 50.625 55 53 C52.79194476 53.0544452 50.58349446 53.09299283 48.375 53.125 C47.14523437 53.14820313 45.91546875 53.17140625 44.6484375 53.1953125 C41.03491363 53.00186904 38.38062097 52.21550417 35 51 C32.66787973 50.92477031 30.3314689 50.90674124 28 51 C27.34 52.32 26.68 53.64 26 55 C24.35 55 22.7 55 21 55 C21.04640625 54.05898437 21.0928125 53.11796875 21.140625 52.1484375 C21.41171014 44.63756603 21.41171014 44.63756603 19.625 37.4375 C13.99781663 32.2122583 7.31900499 29.67683831 -0.1875 28.45703125 C-2 28 -2 28 -4 26 C-4.1875 23.4375 -4.1875 23.4375 -4 21 C-3.505 20.505 -3.505 20.505 -3 20 C0.62090151 20.36209015 3.90082111 20.96877702 7.375 22.0625 C13.08520395 23.53927688 17.44845107 24.38532851 22.8203125 21.46875 C24.83001272 20.18841879 26.83911909 18.907155 28.84765625 17.625 C33.75846323 15.09353073 38.5519477 14.93238233 44 15 C27.70047741 9.09339569 9.96487542 4.50842382 -7.0625 10.0625 C-14.66077913 12.5118885 -21.16485269 11.89127839 -29 11 C-31.6445663 10.78680059 -34.29000685 10.61346631 -36.9375 10.4375 C-38.9583598 10.2920339 -40.9792036 10.14634427 -43 10 C-37.85944882 5.6463974 -31.30301775 4.04725382 -25 2 C-24.22269531 1.74734375 -23.44539063 1.4946875 -22.64453125 1.234375 C-15.27423623 -0.76144957 -7.56114506 -0.20541665 0 0 Z " fill="#B7885A" transform="translate(275,107)"/>
<path d="M0 0 C0.71285156 0.24234375 1.42570312 0.4846875 2.16015625 0.734375 C4.46550027 7.65040707 3.3206998 13.76540386 0.4140625 20.328125 C-4.95803356 30.63719407 -13.77315096 38.46941112 -23.08984375 45.171875 C-23.68023437 45.59710449 -24.270625 46.02233398 -24.87890625 46.46044922 C-28.10760524 48.7185297 -31.16397561 50.35870919 -34.83984375 51.734375 C-37.52915963 53.02267221 -40.18265136 54.38126596 -42.83984375 55.734375 C-50.70108461 59.7375161 -56.79176258 62.7298125 -65.83984375 61.734375 C-70.35300164 59.70805921 -70.35300164 59.70805921 -71.83984375 56.734375 C-72.33767593 52.41982942 -72.29899044 50.39428925 -69.78515625 46.78125 C-66.7704134 43.37198524 -63.30568643 41.38391472 -59.33984375 39.234375 C-42.96590927 29.96151943 -27.7444531 19.24770282 -13.171875 7.37548828 C-11.55120484 6.06412434 -9.91616144 4.77294205 -8.27734375 3.484375 C-6.88322266 2.36289062 -6.88322266 2.36289062 -5.4609375 1.21875 C-2.83984375 -0.265625 -2.83984375 -0.265625 0 0 Z " fill="#B68759" transform="translate(492.83984375,319.265625)"/>
<path d="M0 0 C2 2 2 2 2.375 5.75 C2.15647133 12.14483893 -1.53122608 15.72332237 -5.9375 20 C-18.75907779 30.94219342 -35.47995895 34.31375391 -51.875 34.4375 C-53.30078369 34.45272705 -53.30078369 34.45272705 -54.75537109 34.46826172 C-62.78249649 34.36885026 -71.49522262 33.08185733 -78 28 C-80.07301195 25.36162116 -80.00261949 23.85068889 -80.0625 20.4375 C-79 17 -79 17 -75.88525391 15.29467773 C-72.1171671 13.84674716 -68.82036509 13.71122796 -64.7734375 13.84765625 C-63.39714015 13.87588274 -62.02083787 13.90386968 -60.64453125 13.93164062 C-58.51874523 13.99327526 -56.39341845 14.06184906 -54.26806641 14.13696289 C-39.16016562 14.62880704 -27.80408628 10.99195659 -14.82226562 3.359375 C-9.57093179 0.41617538 -6.04042614 -0.71767439 0 0 Z " fill="#D19A63" transform="translate(445,305)"/>
<path d="M0 0 C0.64453125 0.33644531 1.2890625 0.67289062 1.953125 1.01953125 C3.86840514 2.26446334 5.31692721 3.40392334 6.75 5.1875 C6.64621184 10.68827237 4.97006194 13.83094561 1.75 18.1875 C0.73940479 19.84776356 -0.26453001 21.51220102 -1.25 23.1875 C4.74024962 22.0706738 7.79622192 21.07769921 11.75 16.1875 C12.69424384 14.71262921 13.63120492 13.23308117 14.5625 11.75 C18.94305524 4.99945206 25.06200652 0.61528741 32.75 -1.8125 C35.77034166 -2.0303131 38.72901933 -1.997458 41.75 -1.8125 C41.75 1.1875 41.75 1.1875 40.23046875 2.95703125 C32.98646009 9.41123317 25.28874678 15.16215032 17.390625 20.7890625 C14.62717483 22.76691276 12.02999591 24.76716469 9.546875 27.0859375 C-0.7743576 36.02536574 -13.31809772 34.03456783 -26.25 33.1875 C-26.22365479 32.41100098 -26.19730957 31.63450195 -26.17016602 30.83447266 C-26.26959403 27.53784115 -27.26080567 26.20093788 -29.1875 23.5625 C-32.64620387 18.77100953 -34.06644656 15.20879341 -33.25 9.1875 C-27.55315076 0.30901421 -9.14593232 -4.96334132 0 0 Z " fill="#FEB1B1" transform="translate(326.25,266.8125)"/>
<path d="M0 0 C10.56050176 1.19231471 22.49605637 5.88424657 29.6015625 14.08984375 C30.06304687 14.72019531 30.52453125 15.35054687 31 16 C31.50273437 16.68191406 32.00546875 17.36382812 32.5234375 18.06640625 C37.15483712 25.62761392 37.28743316 34.41371713 36 43 C34.52491298 48.0272267 32.37923182 52.47220927 29.87890625 57.0546875 C28.91896523 59.17935695 28.62753549 61.00905869 28.3125 63.3125 C27.20452697 68.68395326 24.28888976 71.73356708 20 75 C18.67434046 75.68179836 17.3418452 76.35063594 16 77 C15.9124873 73.77100574 15.85943854 70.54231884 15.8125 67.3125 C15.78736328 66.40048828 15.76222656 65.48847656 15.73632812 64.54882812 C15.680639 59.44399154 15.81821773 56.22056465 19 52 C19.66685938 49.45672892 19.66685938 49.45672892 19 47 C18.21625 46.44828125 17.4325 45.8965625 16.625 45.328125 C13.3124862 42.39024074 12.55552411 39.45340227 11.5 35.3125 C10.18261058 30.60149852 8.9118226 26.37995581 6.3125 22.1875 C3.82247877 18.11787155 3.09449252 14.28449222 2.40234375 9.59765625 C1.88855375 6.28046837 0.99590125 3.20111116 0 0 Z " fill="#8D6238" transform="translate(393,193)"/>
<path d="M0 0 C4.37767555 0 6.62828438 1.24519708 9.6875 4.1875 C14.45977734 9.36010083 16.29807899 13.98078994 17 21 C17.82242188 21.07476562 18.64484375 21.14953125 19.4921875 21.2265625 C28.92957268 22.33812519 36.12131429 24.64830383 42.5625 31.875 C44.29296184 35.63687357 45.22393753 38.84471469 45 43 C43.66285141 46.54344377 42.17282995 49.80342542 39 52 C36.375 52.25 36.375 52.25 34 52 C33 51 33 51 32.75 48.6875 C33 46 33 46 34.5625 44 C36.253517 42.07192759 36.253517 42.07192759 35.9375 39.5 C34.57734561 35.87292164 32.45286197 33.72643099 29 32 C25.61529646 31.58723128 22.3787261 31.5134197 19 32 C15.4272249 35.12617821 13.2973673 39.19110347 12.79248047 43.96020508 C12.69481477 46.24767896 12.6780472 48.52303101 12.6875 50.8125 C12.67138672 51.58142578 12.65527344 52.35035156 12.63867188 53.14257812 C12.63395273 58.73477078 13.54283218 62.94793073 16 68 C17.93343097 69.73764825 17.93343097 69.73764825 20.1875 70.5 C20.90292969 70.7990625 21.61835938 71.098125 22.35546875 71.40625 C22.89816406 71.6021875 23.44085938 71.798125 24 72 C21.45858511 74.54141489 19.54384162 74.75651667 16.0625 75.5625 C12.98287908 76.28469543 10.0016953 76.9994349 7 78 C6.90203125 77.443125 6.8040625 76.88625 6.703125 76.3125 C5.72143397 71.3024906 4.31400057 67.17738787 1.8046875 62.7265625 C1 61 1 61 1 58 C-0.98 58 -2.96 58 -5 58 C-4.38153332 54.39640082 -2.86817936 52.2122899 -0.6875 49.3125 C6.08610287 39.88230956 9.16425272 30.67532308 8 19 C6.59076591 14.29718454 4.24447749 11.07482046 0.6875 7.75 C-0.199375 6.8425 -1.08625 5.935 -2 5 C-1.72959845 2.88381398 -1.52912617 1.52912617 0 0 Z " fill="#F07472" transform="translate(237,129)"/>
<path d="M0 0 C2.78684098 0.66398885 5.47849729 1.50809068 8.1875 2.4375 C8.93926514 2.69337891 9.69103027 2.94925781 10.46557617 3.21289062 C17.03460182 5.52610653 23.44104718 8.19203502 29.8125 11 C30.74924561 11.40275146 31.68599121 11.80550293 32.65112305 12.22045898 C38.13486269 14.70989001 41.69605444 16.89892923 45 22 C45.07257317 25.62865851 44.41961284 27.36218848 42.4375 30.375 C38.93220702 32.71186198 36.01334665 32.79209105 32 32 C30.3711851 31.3231865 28.76685635 30.5860216 27.18359375 29.80859375 C22.71297688 27.71370304 18.19457232 25.91557301 13.5390625 24.28125 C12.89439529 24.05320175 12.24972809 23.8251535 11.58552551 23.5901947 C8.92369989 22.65129741 6.2602679 21.71785405 3.59033203 20.80224609 C1.61016483 20.12053352 -0.36299149 19.42104304 -2.3359375 18.71875 C-3.49657715 18.31591797 -4.6572168 17.91308594 -5.85302734 17.49804688 C-9.40177301 15.80874483 -11.49189896 14.01179835 -14 11 C-14.78527701 6.60244876 -14.49058836 4.75962068 -12.0625 1 C-7.78339187 -1.7945196 -4.87102351 -0.89428367 0 0 Z " fill="#D19A63" transform="translate(138,288)"/>
<path d="M0 0 C0.99 0.33 1.98 0.66 3 1 C2.76990234 2.03447266 2.76990234 2.03447266 2.53515625 3.08984375 C1.55492763 8.95057281 1.55492763 8.95057281 3.28125 14.48828125 C5.08616703 16.78005089 6.98171605 18.89448177 9 21 C10.13177471 22.30666264 11.25740767 23.61868666 12.375 24.9375 C13.09816406 25.75541016 13.09816406 25.75541016 13.8359375 26.58984375 C17.3743469 30.87630614 16.46788696 36.75691378 16 42 C13.74670441 47.29034616 9.97193648 49.58695083 5.2578125 52.55078125 C-0.17395905 56.00793192 -0.17395905 56.00793192 -4 61 C-4.12327929 63.10148182 -4.17558006 65.20743907 -4.1875 67.3125 C-4.20876953 69.00826172 -4.20876953 69.00826172 -4.23046875 70.73828125 C-4.0033176 73.95304747 -3.25211999 76.06993784 -2 79 C-2.375 81.8125 -2.375 81.8125 -3 84 C-5.475 84.495 -5.475 84.495 -8 85 C-11.68809583 77.94451233 -12.24102586 72.1452407 -12.51757812 64.28710938 C-12.70973929 60.1647085 -12.97738435 56.69889301 -15 53 C-16.97946592 51.63636792 -18.9819245 50.30581356 -21 49 C-27.67022637 41.864409 -29.90139789 35.4505648 -30.1875 25.8125 C-30.01390674 22.28277028 -29.65103922 20.94315686 -28 18 C-27.92523438 18.66644531 -27.85046875 19.33289063 -27.7734375 20.01953125 C-26.44393795 29.3390624 -23.50426334 37.84092268 -15.75 43.6875 C-10.90771068 46.51284925 -6.48446954 46.97770679 -1 46 C2.40241824 44.6351132 2.40241824 44.6351132 5 43 C5.66 43 6.32 43 7 43 C8.2837207 39.14883789 8.93442695 35.95796558 8 32 C5.68221548 28.34892682 2.89612671 25.20182897 0 22 C-3.52859676 17.91470715 -5.79591087 15.20416263 -6.3125 9.625 C-5.94884973 5.40665686 -4.95115008 3.95115008 -2 1 C-1.34 0.67 -0.68 0.34 0 0 Z " fill="#F07472" transform="translate(151,169)"/>
<path d="M0 0 C1.28429711 2.56859422 0.68569631 3.25721476 0 6 C-0.06743348 8.08234592 -0.08514472 10.16668557 -0.0625 12.25 C-0.05347656 13.32765625 -0.04445312 14.4053125 -0.03515625 15.515625 C-0.02355469 16.33546875 -0.01195312 17.1553125 0 18 C-1.19625 18.515625 -2.3925 19.03125 -3.625 19.5625 C-9.70532914 22.61880704 -13.86642741 27.39799828 -16.35546875 33.7734375 C-17.59140137 38.04302292 -18.36088657 42.42320417 -19.15625 46.79296875 C-19.98867498 49.95695443 -20.70663868 51.69539671 -23 54 C-26.12350758 54.45551152 -28.05153254 54.60972908 -30.75 52.875 C-35.31776098 46.02335853 -34.76016011 37.59425237 -33.46484375 29.765625 C-30.86963964 18.36374463 -24.95163518 11.51417544 -15.21484375 5.19140625 C-10.13578336 2.27810751 -5.8787743 0.26127886 0 0 Z " fill="#D19A63" transform="translate(122,185)"/>
<path d="M0 0 C2.140625 2.00390625 2.140625 2.00390625 4.25 4.5625 C14.10538026 15.98429832 23.31823089 22.7602642 38.25 25.5625 C50.1480787 27.80727085 50.1480787 27.80727085 54 32 C55.125 35.5 55.125 35.5 55 39 C50.47699326 43.64525017 46.13736453 44.66352882 39.8515625 45.19140625 C35.83819557 44.92201587 34.25705327 43.28446254 31.35546875 40.6640625 C28.31101521 38.51325453 25.10452034 37.72600021 21.5625 36.75 C8.27479912 32.75342959 2.23813717 20.56758596 -4.04248047 9.01025391 C-5.44188902 6.07228094 -6.2419778 3.16049694 -7 0 C-4.21693669 -1.39153166 -2.93918223 -0.94349489 0 0 Z " fill="#A2764A" transform="translate(70,328)"/>
<path d="M0 0 C-0.41337881 4.40937397 -2.2704147 7.20972605 -4.74609375 10.7421875 C-9.52429055 19.34591881 -9.24506401 30.76916225 -6.9375 40.125 C-5.86982595 44.53805274 -6.00298606 47.00597212 -8 51 C-8.86772012 57.07404083 -7.0272105 60.16133142 -3.6015625 64.91015625 C-1.76765368 67.30318361 0.06231654 69.6896851 2 72 C-9.46966194 73.03226957 -9.46966194 73.03226957 -14.4375 69.4375 C-16.32421875 67.74609375 -16.32421875 67.74609375 -18 66 C-18.48082031 65.51660156 -18.96164063 65.03320312 -19.45703125 64.53515625 C-25.84833233 56.94669304 -27.66307291 45.61455723 -27 36 C-26.236875 35.87625 -25.47375 35.7525 -24.6875 35.625 C-20.90864613 33.34011161 -20.68530623 30.86899354 -19.60546875 26.72265625 C-19.22851557 25.02758292 -18.87299377 23.32741916 -18.55078125 21.62109375 C-16.8547551 12.67416679 -12.56391674 6.18002829 -5 1 C-2 0 -2 0 0 0 Z " fill="#8D6339" transform="translate(122,203)"/>
<path d="M0 0 C4.21848965 1.61069605 7.73774138 3.7568832 11.4375 6.3125 C7.3367873 11.19845556 3.08899243 15.82020497 -1.4375 20.3125 C-2.36755859 21.24074585 -2.36755859 21.24074585 -3.31640625 22.18774414 C-6.31217167 25.15799532 -9.3195986 28.04758217 -12.5625 30.75 C-16.50282971 34.0815234 -19.93875323 37.8433107 -23.4375 41.625 C-24.04198975 42.27734619 -24.64647949 42.92969238 -25.26928711 43.60180664 C-25.86749268 44.24754639 -26.46569824 44.89328613 -27.08203125 45.55859375 C-30.07534667 48.78953892 -33.07043488 52.01422233 -36.125 55.1875 C-37.24068359 56.35925781 -37.24068359 56.35925781 -38.37890625 57.5546875 C-40.81536575 59.51605919 -42.4855776 59.97722902 -45.5625 60.3125 C-45.03891635 55.22514242 -43.27764983 51.36440871 -40.75 47 C-40.35474121 46.30994873 -39.95948242 45.61989746 -39.55224609 44.90893555 C-14.00860987 1.22882543 -14.00860987 1.22882543 0 0 Z " fill="#307C30" transform="translate(132.5625,392.6875)"/>
<path d="M0 0 C0.74435303 0.00193359 1.48870605 0.00386719 2.25561523 0.00585938 C9.3677831 0.26502959 15.92033599 2.43492899 21.75 6.625 C21.75 7.285 21.75 7.945 21.75 8.625 C20.62980469 8.46773437 19.50960937 8.31046875 18.35546875 8.1484375 C13.58948105 7.55859273 8.86179084 7.33333417 4.0625 7.25 C3.23427734 7.21261719 2.40605469 7.17523438 1.55273438 7.13671875 C-2.83281062 7.07351634 -4.67627733 7.19433928 -8.2890625 9.90625 C-10.41542879 12.85435944 -11.04298314 14.90871149 -10.80078125 18.5625 C-9.75229343 22.48875226 -7.33001067 25.07602565 -4.25 27.625 C-0.08046625 29.66343872 4.1229998 29.96510361 8.69921875 30.28125 C10.75 30.625 10.75 30.625 13.75 32.625 C13.9375 35.25 13.9375 35.25 13.75 37.625 C11.54194476 37.6794452 9.33349446 37.71799283 7.125 37.75 C5.89523437 37.77320313 4.66546875 37.79640625 3.3984375 37.8203125 C-0.21508637 37.62686904 -2.86937903 36.84050417 -6.25 35.625 C-8.58212027 35.54977031 -10.9185311 35.53174124 -13.25 35.625 C-13.91 36.945 -14.57 38.265 -15.25 39.625 C-16.9 39.625 -18.55 39.625 -20.25 39.625 C-20.20359375 38.68398437 -20.1571875 37.74296875 -20.109375 36.7734375 C-19.83828986 29.26256603 -19.83828986 29.26256603 -21.625 22.0625 C-27.25218337 16.8372583 -33.93099501 14.30183831 -41.4375 13.08203125 C-43.25 12.625 -43.25 12.625 -45.25 10.625 C-45.4375 8.0625 -45.4375 8.0625 -45.25 5.625 C-44.92 5.295 -44.59 4.965 -44.25 4.625 C-40.62909849 4.98709015 -37.34917889 5.59377702 -33.875 6.6875 C-29.44804029 7.83240337 -25.77136165 8.59894111 -21.25 7.625 C-19.40190083 6.51558717 -17.59188836 5.34157077 -15.8125 4.125 C-10.40761178 0.69750991 -6.24618706 -0.03590131 0 0 Z " fill="#F07573" transform="translate(316.25,122.375)"/>
<path d="M0 0 C1.84245193 2.83252396 1.38479964 5.41406532 1.09765625 8.6875 C-0.4364707 12.62191169 -2.47951918 13.99558892 -6.34375 15.73828125 C-15.42857102 19.1086805 -24.35655611 19.98900629 -33.96484375 20.125 C-34.86936279 20.14723633 -35.77388184 20.16947266 -36.70581055 20.19238281 C-40.92573913 20.17815434 -43.30103915 20.04676047 -46.98828125 17.84375 C-48.90234375 15.6875 -48.90234375 15.6875 -49.46484375 12.75 C-48.77550825 8.99695118 -47.5849997 7.37015595 -44.90234375 4.6875 C-36.14646046 -0.43057213 -8.96265839 -6.18368217 0 0 Z " fill="#B68759" transform="translate(373.90234375,378.3125)"/>
<path d="M0 0 C3.99169603 4.22650168 5.21579998 9.38973108 6.77734375 14.90234375 C8.32262752 18.81739178 10.4563913 21.65182315 13 25 C12.34104736 24.97381592 11.68209473 24.94763184 11.00317383 24.9206543 C-5.80396023 24.10833939 -5.80396023 24.10833939 -21.609375 29.00390625 C-24.28466608 30.11861087 -25.34500345 30.03594492 -28 29 C-28.63143733 22.05418935 -27.3493088 17.51596889 -23 12 C-8.7095685 -1.70404601 -8.7095685 -1.70404601 0 0 Z " fill="#FEB1B1" transform="translate(281,274)"/>
<path d="M0 0 C5.16007722 1.63402445 7.90472532 4.47460363 11.75 8.1875 C12.83291387 9.17649804 13.91909242 10.16192851 15.0078125 11.14453125 C16.17219366 12.20016945 17.33625521 13.2561603 18.5 14.3125 C19.33265381 15.06623901 19.33265381 15.06623901 20.18212891 15.83520508 C28.25040264 23.25572354 28.25040264 23.25572354 29.6875 28.8125 C29.75 32.1875 29.75 32.1875 28.75 34.0625 C25.63582991 35.81422067 23.28245498 36.67919703 19.75 36.1875 C9.58987103 31.83779622 -2.26674617 21.23846959 -7.25 11.1875 C-7.73669429 7.22441793 -7.82011917 5.09969068 -5.6875 1.6875 C-3.25 0.1875 -3.25 0.1875 0 0 Z " fill="#A2764A" transform="translate(53.25,261.8125)"/>
<path d="M0 0 C3.27592651 6.42421952 6.79453369 13.62388124 6 21 C3.45472105 27.45763351 -0.39397609 32.86757335 -5 38 C-6.52846661 41.05693322 -6.23242445 43.62984547 -6 47 C-5.02896212 49.46186579 -5.02896212 49.46186579 -3 51 C0.10197397 51.80946422 0.10197397 51.80946422 3 52 C0.09833869 56.181806 0.09833869 56.181806 -2 58 C-5 58.25 -5 58.25 -8 57 C-10.47503525 54.40984683 -12.50158827 52.05303531 -14.0390625 48.8046875 C-16.88493861 46.18557443 -19.22982786 46.67915336 -22.98242188 46.79492188 C-23.87509766 46.84197266 -24.76777344 46.88902344 -25.6875 46.9375 C-32.57120889 47.27787527 -37.73854169 47.10928581 -44 44 C-45.0625 40.875 -45.0625 40.875 -45 38 C-44 37 -44 37 -41.1875 36.8125 C-38 37 -38 37 -36.08984375 37.984375 C-31.46289326 40.23298645 -26.21450902 39.68703141 -21.40625 38.1953125 C-12.63140861 34.26830015 -6.72328192 27.44845505 -2.69140625 18.82421875 C-1.11425868 14.66304409 -0.74797366 10.68533799 -0.4375 6.25 C-0.35371094 5.07953125 -0.26992188 3.9090625 -0.18359375 2.703125 C-0.09271484 1.36507812 -0.09271484 1.36507812 0 0 Z " fill="#EF7472" transform="translate(392,191)"/>
<path d="M0 0 C1.08925781 -0.04125 2.17851563 -0.0825 3.30078125 -0.125 C10.89723645 -0.19848445 15.05812456 1.19400573 20.5 6.5 C21.02400391 6.97211914 21.54800781 7.44423828 22.08789062 7.93066406 C23.5 9.25 23.5 9.25 25.5 11.5 C25.5 12.16 25.5 12.82 25.5 13.5 C24.86320312 13.4278125 24.22640625 13.355625 23.5703125 13.28125 C2.90189704 11.30760821 -17.18204828 11.03503255 -36.66748047 18.90234375 C-39.30516607 19.76259613 -41.75719799 19.70571015 -44.5 19.5 C-44.72265625 17.18359375 -44.72265625 17.18359375 -44.5 14.5 C-34.36660129 3.32305346 -14.11905909 0.13367157 0 0 Z " fill="#307C30" transform="translate(86.5,365.5)"/>
<path d="M0 0 C3.35174837 0.3047044 5.48030012 0.59879542 8.17578125 2.6796875 C11.49139452 6.89697719 10.5605078 11.88707523 10 17 C8.24247875 22.36506487 8.24247875 22.36506487 4.78515625 24.13183594 C1.59930543 25.12490094 -1.03922408 25.25882126 -4.375 25.265625 C-5.60863281 25.26820313 -6.84226563 25.27078125 -8.11328125 25.2734375 C-9.39589844 25.26570313 -10.67851562 25.25796875 -12 25.25 C-13.25167969 25.25773437 -14.50335938 25.26546875 -15.79296875 25.2734375 C-24.03658199 25.25635229 -31.89512995 24.500016 -40 23 C-40 22.01 -40 21.02 -40 20 C-20.56423858 13.65823624 -20.56423858 13.65823624 -10.6640625 11.73828125 C-7.64748614 10.90230921 -5.51392988 9.86699455 -3 8 C-1.78856394 6.00306313 -1.78856394 6.00306313 -1.1875 3.8125 C-0.795625 2.554375 -0.40375 1.29625 0 0 Z " fill="#FDB2B1" transform="translate(232,285)"/>
<path d="M0 0 C4.29836579 1.29906166 7.97446211 2.91882514 11.8125 5.25 C12.76769531 5.81203125 13.72289062 6.3740625 14.70703125 6.953125 C17 9 17 9 18.0078125 11.8125 C17.98368504 21.65650515 9.3131377 32.04996168 3 39 C1.79923828 40.35738281 1.79923828 40.35738281 0.57421875 41.7421875 C-6.43164961 49.23587188 -14.02088587 54.1841876 -23 59 C-23.59651367 59.32436035 -24.19302734 59.6487207 -24.80761719 59.98291016 C-31.72938694 63.71849914 -31.72938694 63.71849914 -35 65 C-35.66 64.67 -36.32 64.34 -37 64 C-36.28972656 63.37351562 -35.57945312 62.74703125 -34.84765625 62.1015625 C-33.92855469 61.28429687 -33.00945312 60.46703125 -32.0625 59.625 C-30.68771484 58.40683594 -30.68771484 58.40683594 -29.28515625 57.1640625 C-26.96398605 55.21290653 -26.96398605 55.21290653 -26 53 C-24.2984375 52.7525 -24.2984375 52.7525 -22.5625 52.5 C-14.18276481 50.56274939 -8.56430268 42.18468886 -4.0625 35.375 C-3.01287617 33.60004649 -1.98858516 31.80966006 -1 30 C-0.6390625 29.34644531 -0.278125 28.69289062 0.09375 28.01953125 C4.01451785 19.50638254 2.77959697 8.68624053 0 0 Z " fill="#B7885A" transform="translate(446,206)"/>
<path d="M0 0 C-1.22291473 2.54773903 -2.50186493 4.72327593 -4.125 7.0625 C-6.84853468 11.80308856 -6.77609465 16.69118234 -6 22 C-3.96333129 26.16591327 -0.97899831 27.61786011 2.9375 29.8125 C7.90059796 32.65693428 10.86025903 35.65613409 13 41 C13.3125 44 13.3125 44 13 46 C11.02 46.495 11.02 46.495 9 47 C8.57589844 46.39671875 8.15179688 45.7934375 7.71484375 45.171875 C2.20562128 37.66480263 -2.66762907 33.96470967 -12 32 C-17.5300488 31.63737385 -22.26030234 32.37224218 -27.65625 33.5546875 C-30.46853496 34.08902164 -33.14535217 34.15024462 -36 34 C-36.33 32.35 -36.66 30.7 -37 29 C-29.63901149 24.23700743 -23.58002732 23.72519485 -15 24 C-15.04640625 23.13117188 -15.0928125 22.26234375 -15.140625 21.3671875 C-15.47241614 10.77357044 -15.47241614 10.77357044 -13.3125 7.3125 C-10.93486071 4.93486071 -9.2194822 3.89430061 -6 3 C-6 2.34 -6 1.68 -6 1 C-3.92446352 0.4465236 -2.15634036 0 0 0 Z " fill="#F07674" transform="translate(210,119)"/>
<path d="M0 0 C5.43752324 0.25892968 9.20074085 2.22724731 13 6 C18 13.27386935 18 13.27386935 18 17 C23.15698494 18.70783268 27.3803813 19.19850541 32.875 19.0625 C35.24949014 19.00906235 37.62499909 18.97927057 40 19 C41 20 41 20 41.0625 22.5625 C41.041875 23.366875 41.02125 24.17125 41 25 C36.38292841 27.79454333 32.63797551 28.3967112 27.3671875 28.59375 C24.4472665 29.09485855 23.11407069 29.93670393 21 32 C20.03261426 34.11520032 20.03261426 34.11520032 19.5 36.4375 C18.35610836 40.20742244 17.44355024 42.77182044 14 45 C11.25 44.75 11.25 44.75 9 44 C8.73248296 40.87896783 8.76445803 39.3669496 10.484375 36.6875 C13.11186343 32.02844835 12.60770029 27.19921359 12 22 C10.12280907 15.84362115 6.33129435 10.89073463 0.6875 7.6875 C0.130625 7.460625 -0.42625 7.23375 -1 7 C-1.04254356 5.00045254 -1.04080783 2.99958364 -1 1 C-0.67 0.67 -0.34 0.34 0 0 Z " fill="#F07573" transform="translate(180,168)"/>
<path d="M0 0 C6.75873071 6.05259467 9.48833949 15.13121784 10 24 C9.13375 24.4125 8.2675 24.825 7.375 25.25 C3.96262269 26.91153517 3.96262269 26.91153517 1 29.1875 C-2.43610004 31.26347711 -4.06496917 31.76989734 -8 31 C-11.105961 28.30271808 -11.90732224 26.63715963 -12.5 22.5625 C-11.7772532 17.41292905 -9.28243008 14.52288572 -6 10.625 C-3.47164014 7.30652768 -1.75820527 3.76891875 0 0 Z " fill="#FDB1B0" transform="translate(397,212)"/>
<path d="M0 0 C0.495 0.99 0.495 0.99 1 2 C0.36835938 2.02578125 -0.26328125 2.0515625 -0.9140625 2.078125 C-6.52999347 2.43417826 -11.39939556 3.35771607 -16.75 5.125 C-24.46422458 7.45779499 -31.08444903 6.90042462 -39 6 C-41.6445663 5.78680059 -44.29000685 5.61346631 -46.9375 5.4375 C-48.9583598 5.2920339 -50.9792036 5.14634427 -53 5 C-47.85944882 0.6463974 -41.30301775 -0.95274618 -35 -3 C-34.22269531 -3.25265625 -33.44539063 -3.5053125 -32.64453125 -3.765625 C-21.94296401 -6.66353489 -9.14187796 -6.84086106 0 0 Z " fill="#D19A64" transform="translate(285,112)"/>
<path d="M0 0 C0.33 0 0.66 0 1 0 C1.08132187 2.56314499 1.14064175 5.12368418 1.1875 7.6875 C1.21263672 8.40873047 1.23777344 9.12996094 1.26367188 9.87304688 C1.32729671 14.51765963 1.08342146 17.46753658 -2 21 C-4.67327507 22.95239191 -7.48698594 24.5751881 -10.375 26.1875 C-11.50808594 26.84395508 -11.50808594 26.84395508 -12.6640625 27.51367188 C-16.35769237 29.6284687 -19.97799189 31.56585766 -24 33 C-23.67 32.34 -23.34 31.68 -23 31 C-23.18687927 29.47909027 -23.37448619 27.9582699 -23.5625 26.4375 C-23.60912148 22.84246623 -23.33910864 21.42166829 -21.05859375 18.5859375 C-18.45114207 16.2690873 -15.76861752 14.12089531 -13 12 C-11.55240943 10.76169963 -10.11384651 9.51271211 -8.6875 8.25 C-7.73230469 7.42048828 -7.73230469 7.42048828 -6.7578125 6.57421875 C-5.13300382 5.11911231 -3.5890308 3.61956142 -2.0625 2.0625 C-1.381875 1.381875 -0.70125 0.70125 0 0 Z " fill="#FDB2B1" transform="translate(408,252)"/>
<path d="M0 0 C8.46279434 2.3614132 13.23553095 9.05748795 18 16 C17.01 16 16.02 16 15 16 C15 15.34 15 14.68 15 14 C14.42507813 13.71382812 13.85015625 13.42765625 13.2578125 13.1328125 C11.84394973 12.42343499 10.44060517 11.69222052 9.0546875 10.9296875 C2.37532849 7.69773959 -3.66647359 7.68173664 -10.93017578 7.97216797 C-12.95215781 8.04507494 -14.97691557 8.02925949 -17 8 C-17.66 7.34 -18.32 6.68 -19 6 C-18.8125 4 -18.8125 4 -18 2 C-12.74281279 -1.50479147 -6.11830718 -0.51677047 0 0 Z " fill="#F07573" transform="translate(363,150)"/>
<path d="M0 0 C0.4125 0.61875 0.825 1.2375 1.25 1.875 C3.05573879 4.06768281 4.4090534 4.92788417 7 6 C4.31651929 7.15610024 1.62884316 8.29996786 -1.0625 9.4375 C-2.19075195 9.92573242 -2.19075195 9.92573242 -3.34179688 10.42382812 C-7.94473428 12.35666331 -12.02523399 13.53093176 -17 14 C-13.46843481 10.31118515 -9.81465908 7.22617756 -5.6875 4.1875 C-5.13771484 3.78080078 -4.58792969 3.37410156 -4.02148438 2.95507812 C-2.68374453 1.96631389 -1.34226377 0.98261415 0 0 Z " fill="#FDB1B0" transform="translate(377,280)"/>
<path d="M0 0 C2.30163882 3.45245824 2.34490322 4.94738713 2 9 C1.34 9.66 0.68 10.32 0 11 C-2.625 10.625 -2.625 10.625 -5 10 C-5.33 8.35 -5.66 6.7 -6 5 C-4.02 3.35 -2.04 1.7 0 0 Z " fill="#F07876" transform="translate(384,274)"/>
</svg>
